<svg xmlns="http://www.w3.org/2000/svg" viewBox="40 40 120 80">
  <!-- Stacked D layers - made narrower -->
  <path d="M40 120 L85 120 Q110 120 110 100 L110 80 L40 80 Z" fill="#bfdbfe" />
  <path d="M40 100 L85 100 Q110 100 110 80 L110 60 L40 60 Z" fill="#93c5fd" />
  <path d="M40 80 L85 80 Q110 80 110 60 L110 40 L40 40 Z" fill="#3b82f6" />
  
  <!-- Stacked M layers - moved slightly left -->
  <path d="M120 120 L120 80 L140 100 L160 80 L160 120 Z" fill="#bfdbfe" />
  <path d="M120 100 L120 60 L140 80 L160 60 L160 100 Z" fill="#93c5fd" />
  <path d="M120 80 L120 40 L140 60 L160 40 L160 80 Z" fill="#3b82f6" />
</svg>