<?xml version="1.0" encoding="UTF-8" standalone="no"?>
<!-- Created with Inkscape (http://www.inkscape.org/) -->

<svg
   version="1.1"
   id="svg2"
   width="576"
   height="576"
   viewBox="0 0 576 576"
   sodipodi:docname="Paw_RGB__Orange__Orange.eps"
   xmlns:inkscape="http://www.inkscape.org/namespaces/inkscape"
   xmlns:sodipodi="http://sodipodi.sourceforge.net/DTD/sodipodi-0.dtd"
   xmlns="http://www.w3.org/2000/svg"
   xmlns:svg="http://www.w3.org/2000/svg">
  <defs
     id="defs6" />
  <sodipodi:namedview
     id="namedview4"
     pagecolor="#ffffff"
     bordercolor="#000000"
     borderopacity="0.25"
     inkscape:showpageshadow="2"
     inkscape:pageopacity="0.0"
     inkscape:pagecheckerboard="0"
     inkscape:deskcolor="#d1d1d1" />
  <g
     id="g8"
     inkscape:groupmode="layer"
     inkscape:label="ink_ext_XXXXXX"
     transform="matrix(1.3333333,0,0,-1.3333333,0,576)">
    <g
       id="g10"
       transform="scale(0.1)">
      <path
         d="m 2342.26,3825.81 c -3.51,-9.77 2.32,-17.57 3.52,-24.6 -3.83,-0.76 -5.6,-6.48 -7.03,-7.03 -12.73,-4.28 -28.97,3.3 -42.15,0 -7.03,-1.64 -17.02,-16.02 -24.59,-17.56 -16.27,-3.19 -24.93,7.47 -38.66,-3.51 -6.58,-5.05 -20.85,-49.74 -24.59,-59.73 -3.83,2.08 -6.58,-1.54 -10.55,0 -3.95,1.53 -9.09,12.07 -14.04,14.05 -32.17,13.06 -30.97,-13.39 -45.69,-24.59 -5.37,-3.95 -14.6,-3.95 -21.07,-7.03 0,0 -2.63,10.43 -3.52,14.05 4.17,3.84 15.92,8.12 17.57,14.06 0.99,3.95 -1.65,10.43 0,14.05 -3.08,2.42 -6.25,2.09 -7.02,7.03 -6.49,0 -14.83,-1.43 -21.09,0 -3.5,-4.83 -12.73,-11.86 -14.05,-17.57 -0.66,-2.41 1.54,-8.12 0,-10.54 -2.63,-3.73 -16.36,-6.59 -17.57,-10.54 -5.27,-15.92 3.51,-27.99 7.03,-38.64 h -7.03 c -5.16,-1.66 -15.48,-20.1 -14.05,-28.12 0.44,-2.85 9.43,-8.45 10.55,-10.54 1.19,-2.41 1.62,-12.41 3.5,-14.05 2.85,-2.52 8.13,-0.33 10.54,-3.52 -6.25,-13.28 -5.71,-19.1 -10.54,-35.13 -1.88,1.21 -8.68,0 -10.54,0 -9.22,19.54 -11.52,12.3 -7.03,42.16 -3.52,1.65 -10.98,9.78 -14.04,10.54 -10.55,2.85 -24.93,-2.96 -35.14,0 -3.52,1.11 -5.49,12.74 -10.56,14.06 -3.82,1.1 -16.9,-2.75 -14.03,-3.52 -4.29,-7.46 -9.45,-14.71 -14.07,-24.59 -0.54,-1.11 -6.69,-2.52 -7.02,-3.52 -2.3,-5.7 0.66,-17.01 -3.5,-21.08 -6.49,-5.92 -17.8,-1.53 -24.61,-7.02 -5.04,-3.84 -14.59,-54.79 -7.02,-59.74 10.87,-7.01 17.23,-0.32 24.59,3.52 5.49,2.97 2.52,6.82 3.52,14.05 2.3,-0.76 10.54,-3.5 10.54,-3.5 -1.99,-10.55 -2.75,-12.64 -3.52,-24.6 -3.85,-0.77 -5.59,-6.48 -7.02,-7.03 -10.67,-3.62 -27.68,2.74 -38.66,0 l -3.52,-7.03 c -5.7,-3.62 -10.74,-0.22 -17.55,-3.51 3.83,18.78 5.7,29.64 10.54,45.67 -6.6,2.75 -1.76,0.33 -3.52,7.03 -16.91,1.31 -31.73,6.8 -42.16,-7.03 -13.73,-17.89 -8.66,-36.01 0,-52.7 -7.04,-8.45 -19.22,-18.33 -21.08,-31.62 -0.66,-4.17 2.09,-13.84 0,-17.57 -0.77,-1.09 -15.92,-3.07 -17.57,-3.51 -1.1,-6.81 -0.88,-15.59 -3.52,-24.6 0.66,-0.1 12.63,-2.3 14.06,-3.5 3.84,-3.19 3.41,-14.72 7.03,-17.57 -7.69,0.22 -46.99,-3.41 -56.23,-10.55 -8.77,-6.58 4.62,-42.37 0,-56.21 -2.51,-7.36 -13.72,-14.82 -17.55,-21.09 -15.93,-25.46 -27.56,-44.68 -45.68,-66.75 -3.07,-3.62 -12.31,-7.03 -14.05,-14.06 -10.98,-43.14 10.53,-27.55 21.07,-31.61 2.43,-0.88 13.72,-11.31 17.57,-14.05 -6.47,-13.73 -22.4,-35.47 -10.54,-56.23 2.09,-3.73 11.87,-5.82 14.06,-10.53 2.3,-5.16 -4.94,-2.54 -3.52,-10.55 3.4,-20.63 26.46,-21.08 45.68,-21.08 -2.09,-0.76 -13.4,-10.32 -14.05,-10.54 -33.93,-9.99 -28.89,4.83 -42.17,-28.11 -15.69,20.76 -27.44,25.7 -59.73,31.63 -2.63,-5.49 -6.47,-6.81 -10.55,-10.54 6.38,-15.93 6.61,-23.62 14.07,-38.65 -5.6,-3.73 -16.91,-8.68 -21.09,-14.06 -3.96,-4.83 -2.74,-13.5 -7.02,-17.57 -3.63,-3.29 -9.77,-0.76 -14.07,-3.51 -4.48,-2.74 -10.63,-13.18 -14.03,-17.56 1.43,-2.42 0,-11.09 0,-14.06 17.78,-4.5 19.87,-6.48 42.14,-3.51 -1.97,-3.85 1.55,-6.37 0,-10.54 l -7.02,-3.52 c -7.56,-11.52 -3.96,-18.44 -7.02,-35.14 2.2,-1.2 12.73,-5.15 14.04,-7.02 9.9,-13.61 15.06,-25.15 24.61,-38.65 -6.92,-4.61 -25.69,-12.74 -28.11,-21.08 -1.88,-6.04 1.76,-11.42 0,-17.57 9.22,-2.42 25.46,-5.59 35.13,-10.54 2.09,-0.99 7.36,-9.66 10.55,-10.54 6.14,-1.54 11.31,1.65 17.55,0 -2.08,-8.01 -3.94,-15.81 -7.02,-28.1 -8.79,-0.33 -9.87,6.8 -21.08,3.5 -2.09,-0.54 -7.24,-8.89 -10.53,-10.53 13.39,-24.93 -1.65,-18.12 35.13,-21.08 3.4,-9.34 7.25,-20.1 10.54,-28.11 1.2,0 2.31,0 3.51,0 2.75,-14.82 -4.71,-19.98 -3.51,-35.14 0.88,-12.62 11.97,-37.99 14.05,-49.18 1.43,-8.13 -2.74,-16.81 0,-24.6 0.44,-1.43 6.15,-3.19 7.02,-7.03 29.11,10.32 8.79,-6.04 28.11,17.57 3.86,-1.87 6.37,1.65 10.55,0 0.99,-0.33 8.24,-9.99 10.55,-10.54 15.14,-3.41 17.33,6.48 31.61,0 15.49,-7.03 -1.64,-17.46 -3.52,-24.59 -1.1,-3.96 1.43,-10.11 0,-14.06 25.91,-18.56 35.47,-29.31 73.79,-28.11 1.98,4.84 3.52,12.96 7.02,17.57 2.64,3.74 11.43,3.95 14.06,7.02 v -38.64 c 0.88,-4.28 20.42,-28.11 24.59,-35.13 9.44,0.76 18.45,0 28.11,0 1.1,2.3 4.95,13.61 7.04,14.05 31.62,7.13 40.05,-27.23 56.21,-31.63 9.98,-2.63 15.7,1.99 24.59,3.52 3.4,-4.17 5.16,-15.7 10.54,-17.57 3.73,-1.2 10.43,1.98 14.05,0 0.66,3.73 6.49,5.6 7.04,7.03 1.97,6.04 -1.77,11.53 0,17.57 -3.19,0.66 -18.89,1.1 -24.59,3.51 -6.15,2.74 -8.8,19.33 -14.07,21.08 h -7.02 c -1.88,3.84 1.87,10.44 0,14.05 2.42,3.85 8.45,9.77 10.54,14.06 4.61,-4.17 14.38,-4.84 17.56,-10.54 1.76,-3.3 -1.09,-10.32 0,-14.05 1.43,-5.39 10.99,-9.67 14.06,-14.06 6.69,1.32 14.26,-1.54 21.07,0 12.1,2.86 15.05,16.91 31.63,17.57 19.01,0.88 36.91,-17.46 63.24,-10.54 17.9,4.83 13.5,27.89 24.59,35.13 12.3,8.24 29.54,2.09 45.7,7.03 3.83,1.32 9.86,8.67 14.04,10.54 0,3.07 -1.44,11.42 0,14.05 1.86,3.85 8.12,2.42 10.55,7.03 16.47,-5.27 37.31,-16.8 56.21,-7.03 4.49,2.42 6.8,14.83 10.52,17.57 3.52,2.85 10.12,1.54 14.07,3.52 3.41,1.86 10.53,12.29 14.04,14.05 8.23,4.39 16.58,3.96 24.59,7.03 0,0 4.52,16.47 3.55,21.08 -1.35,5.38 -13.07,10.1 -14.07,14.05 -2.75,10.33 4.49,8.9 3.51,17.57 4.95,3.62 7.12,9 10.56,14.05 13.72,-1.87 29.3,-6.15 42.14,0 7.69,3.85 5.38,11.65 10.55,17.57 6.9,8.24 22.94,15.04 31.6,21.08 -1.52,11.42 -5.03,22.95 -3.49,31.62 1.31,7.91 14.04,15.37 17.56,21.09 4.49,7.58 3.29,13.06 7.03,21.08 -1.2,0.88 -10.12,5.71 -10.55,7.02 -1.63,4.06 1.97,6.81 0,10.54 27.99,19.88 33.28,30.52 0,49.19 20.87,10.87 38.97,21.96 59.73,31.62 -1.66,4.61 0,12.63 0,17.57 -4.17,1.98 -10.21,9.33 -14.04,10.55 -14.06,4.39 -22.73,-0.45 -31.62,7.02 -3.75,3.18 -2.09,11.64 -3.52,17.57 -7.81,-2.75 -5.37,9.77 -7.03,14.05 0.54,0 19.67,-1.32 14.07,-3.51 22.61,2.63 62.01,5.37 42.14,35.13 -1.86,2.75 -13.18,4.29 -14.04,7.03 -2.2,6.91 6.23,16.9 3.49,28.11 -2.29,8.89 -15.35,10.65 -17.55,14.05 -7.24,10.98 -10.44,14.16 3.51,21.08 -1.77,24.05 -2.97,23.06 10.55,35.13 0.75,0.78 9.44,0 10.53,0 0.57,3.96 0.34,20.1 3.51,24.6 l 21.08,10.54 c -4.81,14.72 -10.53,28.88 -7.04,38.65 0.89,2.85 10.01,11.41 10.55,14.06 1.31,8.12 -4.83,5.15 -3.51,10.54 -4.07,-0.88 -13.73,-3.52 -14.04,-3.52 -8.78,-29.53 -5.5,-39.74 -24.59,-14.06 -9.35,-1.09 -8.24,-4.5 -14.08,-7.02 0,0 -0.54,22.07 0,28.11 28.12,6.47 17.59,1.65 31.63,21.08 3.06,-2.19 6.81,1.43 10.55,0 3.61,-1.42 4.38,-12.19 7.01,-14.05 16.27,-11.54 38.11,-3.63 52.72,0 -1.66,6.81 1.86,14.49 0,21.07 -1.23,4.07 -12.83,12.3 -14.06,17.57 -1,3.96 -1.98,19.33 3.51,17.57 v 7.02 c -0.77,2.2 -10.09,9.45 -10.52,10.55 -0.88,2.08 0.86,8.67 0,10.54 25.99,11.42 29.42,13.39 42.15,38.65 l 7.03,7.03 c 1.09,7.68 -6.15,13.5 -3.52,24.59 1.32,6.15 12.96,13.73 14.04,21.08 1,7.79 -5.92,16.36 -3.51,28.11 1.43,7.02 15.92,18.89 17.58,24.6 2.09,7.68 -1.31,16.8 0,24.59 -23.07,13.51 -21.96,7.8 -24.59,42.16 5.72,3.62 2.09,3.08 3.49,10.54 h 7.03 c 0.35,-7.03 -0.66,-17.68 0,-28.11 0.66,0.11 19.56,0.66 14.07,3.51 1.32,4.18 7.01,18.01 10.55,21.09 0.43,0.54 0.09,9.88 0,10.54 -1.45,5.71 -10.43,12.62 -14.07,17.56 2.87,4.62 8.01,9.89 10.53,14.06 2.43,4.29 9.78,14.71 10.55,17.57 3.74,16.68 -6.81,30.63 -7.01,38.65 -0.57,14.05 8.55,21.3 7.01,38.64 l -7.01,10.54 c -8.03,38.87 -1.77,32.83 -38.66,42.17 -1.66,-7.03 -5.37,-20.09 -7.03,-28.11 -6.8,-1.76 -4.4,3.07 -7.03,-3.51 -12.3,0.55 -27.88,2.96 -35.12,3.51 1.52,26.9 -0.23,36.56 -7.03,59.73 -10.21,2.3 -27.57,11.96 -42.17,7.03 -2.64,-0.78 -6.81,-8.68 -10.53,-10.55 0,-8.12 1.2,-16.35 0,-24.59 h -7.03 c -3.52,7.36 0,11.2 -3.52,17.57 -4.95,8.67 -22.62,16.25 -24.59,28.11 -3.4,19.87 9.66,20.41 7.04,38.64 -0.78,4.94 -30.77,44.8 -35.14,45.68 -19.45,4.17 -22.31,-9.01 -31.63,-14.05 -11.44,-5.94 -24.71,-9.12 -35.14,-14.05 5.72,-23.07 19.21,-66 -24.59,-56.22 -15.47,3.51 -11.21,14.16 -17.58,28.1 -1.09,2.31 -10.1,4.73 -10.53,7.03 -3.2,16.15 8.55,30.2 0,45.68 -5.06,9 -17.67,6.25 -28.11,10.54 -0.77,-1.98 -9.89,-4.95 -10.55,-7.03 z m -1047.01,-442.7 c -5.06,-4.94 0,-17.79 -3.52,-24.6 -3.29,-6.15 -21.84,-15.15 -35.14,-10.54 0,0 -6.58,18.77 -17.56,21.08 -10.2,2.2 -23.39,-3.29 -28.1,-3.51 l -3.52,-28.11 -17.56,-21.08 10.53,-3.51 c 6.8,-10.44 7.69,-14.6 14.06,-28.11 -3.74,1.75 -10.2,-1.32 -14.06,0 -12.07,4.17 -25.14,39.75 -38.63,45.68 -17.15,7.68 -46.68,6.81 -66.77,10.54 -3.62,-4.94 -9,-7.15 -14.05,-10.54 0.11,0 0,-10 0,-10.54 4.39,-1.11 5.6,-8.79 0,-7.03 -0.77,0.21 -2.98,5.92 -3.52,7.03 -9.78,0 -21.96,-0.33 -31.62,0 -4.18,-23.06 -14.04,-33.6 -24.59,-49.2 -4.29,3.3 -9.88,0.33 -14.06,3.52 -1.43,1.1 -6.7,13.07 -7.02,14.05 23.59,6.59 -39.64,-1.31 -14.065,-3.51 -5.703,-1.65 -9.766,-0.11 -14.039,-3.51 l -21.086,-24.6 c -5.492,-9.77 -2.645,-28.54 -14.055,-35.14 -5.273,-2.95 -20.414,-2.74 -24.59,-3.51 -17.242,-45.23 -14.824,-15.26 -42.18,-28.1 -4.484,-1.98 -6.57,-14.28 -10.531,-17.58 -3.617,-2.74 -10.211,-1.42 -14.054,-3.5 l -3.516,-7.03 c -15.356,-9.89 -29.856,-6.48 -45.664,-7.03 -2.086,-4.94 -3.406,-15.15 -7.031,-21.08 -6.039,-9.45 -18.672,-7.8 -28.114,-14.06 -12.078,-7.79 -40.726,-53.36 -49.179,-56.21 -1.114,-0.33 -14.836,3.95 -21.082,3.51 -12.969,-0.77 -35.032,-7.69 -45.68,-10.54 0,-18.44 1.527,-31.07 3.516,-45.68 -8.133,2.09 1.214,-3.95 -7.024,-3.51 l -7.027,7.03 c -11.867,3.18 -25.364,-8.23 -28.114,-14.05 -5.828,-12.19 -0.882,-23.06 0,-35.14 6.036,0 15.274,1.87 21.075,0 -3.172,-40.19 1.105,-40.74 -35.141,-38.65 -0.973,-2.3 -8.66,-8.89 -10.523,-10.53 4.062,-13.84 3.062,-20.21 7.023,-35.15 -1.527,0.22 -15.156,-2.63 -21.09,-3.51 0,0 1.543,18.23 -35.129,-7.02 5.164,-38.76 -12.847,-52.16 -7.015,-94.87 -10.321,-5.93 -22.192,-14.93 -31.625,-21.08 1.203,-6.15 -1.313,-11.3 0,-17.57 1.742,-8.78 12.722,-20.42 14.039,-31.62 1.316,-12.18 -0.098,-22.62 -3.5,-31.62 -0.117,-0.22 -7.024,-3.52 -7.024,-3.52 -3.961,-21.74 4.821,-47.65 7.024,-66.75 4.269,-1.43 8.992,0.22 10.535,-3.52 1.543,-3.73 -1.973,-10.32 0,-14.05 -2.516,-2.97 -11.969,-7.02 -14.055,-10.54 -11.426,-18.45 -0.558,-35.02 -3.504,-56.22 0,0 -6.257,-3.07 -7.031,-3.51 v -7.02 c -1,-5.49 -4.402,-17.24 0,-28.11 0.867,-2.2 8.559,-5.05 10.535,-7.03 v -7.03 c 36.34,-2.53 36.672,-2.85 56.211,21.09 2.649,-0.88 10.11,-3.74 10.539,-3.52 -1.527,-4.94 -6.578,-11.64 -7.015,-14.06 -1.106,-5.16 3.5,-21.07 3.5,-21.07 1.543,-1.11 9.89,-5.06 10.55,-7.03 2.629,-8.13 -0.769,-19.44 0,-28.11 -32.168,14.94 -53.144,11.86 -38.656,-28.11 1.774,-4.94 -0.316,-8.01 3.516,-10.54 6.379,-4.06 16.156,0.22 24.59,-3.51 2.203,-0.99 8.234,-13.62 10.55,-14.05 22.618,-4.18 31.739,18.77 38.661,31.61 3.945,-1.97 9.648,-6.8 14.035,-7.02 -12.176,-24.38 -7.348,-20.75 0,-42.17 -0.77,-0.32 0,-9.66 0,-10.54 -1.856,5.16 -3.832,-9.1 -3.516,-10.53 4.52,-20.86 33.387,-18.89 52.711,-17.57 -1.098,-1.76 0.66,-8.45 0,-10.54 -3.746,-9.44 -26.793,-19.55 -35.129,-24.6 2.078,-5.92 -2.199,-11.53 0,-17.56 1.203,-3.52 20.535,-20.1 24.578,-21.09 14.496,-3.51 40.301,5.71 49.196,10.55 3.304,1.86 9.109,13.28 14.054,14.05 11.207,1.86 15.153,-4.39 24.59,-7.03 -0.215,0 0,-9.99 0,-10.54 -43.805,-4.83 -55.324,-15.7 -31.625,-49.19 18.785,4.83 23.289,2.31 42.18,7.03 1.426,-11.53 4.597,-34.26 14.051,-38.65 6.363,-2.86 17.339,0.99 24.589,0 37.329,-5.05 38.211,-21.19 63.235,14.06 18.011,-1.98 29.109,-5.06 42.176,0 l 7.031,7.02 c 11.738,1.65 23.816,-6.36 31.609,-7.02 9.996,-0.66 13.512,3.51 21.09,3.51 2.188,8.89 3.945,16.58 7.02,28.1 -5.586,4.5 -11.309,6.7 -17.571,10.55 v 7.03 c 11.637,5.48 24.821,14.16 35.141,17.56 12.07,4.07 30.85,5.71 42.16,0 l 7.02,-7.03 c 18.13,-2.63 27.13,8.68 38.66,10.55 7.9,1.43 20.76,-3.08 28.1,0 10.76,4.71 10.1,26.57 17.56,35.13 7.8,9.22 25.49,13.5 35.16,21.08 -3.31,8.56 10.52,0 10.52,0 4.95,-31.95 -0.43,-26.57 31.62,-31.62 5.28,9.99 13.96,31.29 28.11,31.62 6.15,0.22 1.97,-4.83 10.55,-3.51 1.75,-4.94 -1.87,-12.52 0,-17.57 0.66,-1.87 8.78,-6.92 10.54,-10.54 3.84,1.54 9.99,-0.99 14.05,0 10.98,3.08 16.9,28.54 21.07,38.65 39.32,1.65 31.2,-1.98 45.7,24.59 15.68,-2.08 23.81,-0.98 38.64,0 0.78,3.85 6.48,5.6 7.02,7.03 2.65,7.68 -2.63,16.91 0,24.6 2.09,6.25 16.91,12.18 21.09,17.56 4.49,6.04 5.15,16.36 10.54,21.08 10.32,9.34 26.46,9.77 31.62,24.6 2.63,7.79 -1.53,16.47 0,24.59 0.66,4.17 10.1,16.91 10.53,21.08 2.64,26.79 -12.83,29.21 -28.1,38.65 -4.61,-6.15 -9.34,-11.52 -14.05,-17.56 8.79,-1.65 -10.54,-7.03 -10.54,-7.03 3.29,19 -2.75,18.44 17.55,31.62 8.14,5.38 13.42,4.83 21.09,10.54 2.3,1.87 4.27,9.33 7.02,10.54 11.98,5.82 26.58,0.44 38.66,7.02 5.6,3.19 2.63,14.17 7.03,17.58 -5.49,10.09 -1.31,11.63 -10.55,17.56 -5.26,3.41 -10.86,4.17 -17.55,7.03 3.71,2.53 6.24,12.4 10.52,14.05 10.11,4.07 20.33,-0.99 28.1,3.51 6.92,4.18 2.32,10.99 7.04,17.58 2.97,4.39 14.82,6.47 17.57,10.54 3.19,5.04 16.02,42.92 14.06,52.7 -1.21,5.6 -12.19,10.1 -14.06,14.05 -3.84,8.24 -0.77,13.83 -3.52,24.6 4.62,0.21 5.16,6.58 7.02,7.02 7.48,1.98 10.13,-6.04 14.07,-7.02 21.3,-4.84 25.79,7.68 35.14,14.05 -1.77,15.04 -4.07,33.6 -3.52,45.67 -16.7,8.46 -23.61,3.19 -24.59,28.11 -1.11,24.16 11.96,22.62 14.04,31.63 1.66,7.35 -3.4,19.65 -3.51,21.07 -2.64,30.97 8.57,34.15 0,63.25 4.73,1.75 12.64,0 17.58,0 10.54,22.51 9.22,13.28 3.5,38.64 -4.71,1.44 -11.07,0.88 -14.05,3.52 -7.79,7.24 -14.81,20.09 -21.07,28.11 15.15,12.07 25.91,24.05 42.16,35.13 -1.87,6.15 1.74,11.54 0,17.58 -0.66,2.08 -9.78,10.43 -10.54,14.05 -3.3,15.26 -1.54,25.03 -3.52,38.64 3.95,-0.11 19.1,-2.63 28.1,-3.51 0,0 4.17,16.25 3.51,21.08 -0.31,1.76 -16.78,44.91 -17.55,45.68 -3.52,3.29 -13.94,4.72 -17.57,7.03 5.16,16.24 17.13,45.45 -3.52,52.69 -6.03,2.21 -11.63,-2.08 -17.56,0 -2.54,-6.58 -4.28,-12.62 -7.03,-17.56 -17.57,-30.63 -3.09,-1.98 -17.57,-7.03 0,6.37 1.53,15.04 0,21.08 1.1,0.66 6.81,2.86 7.02,3.51 1.54,5.17 3.52,4.4 7.04,7.03 -2.87,7.69 -6.04,15.71 -7.04,21.08 -6.26,-2.96 -28.32,-12.19 -35.13,-10.54 -0.77,0.22 -8.79,10.11 -10.53,10.54 -4.06,1.1 -10.21,-1.42 -14.07,0 -2.75,-2.63 -10.98,-16.47 -14.04,-17.56 -3.85,-1.21 -10.55,1.97 -14.07,0 12.3,0 -6.92,45.46 -7.02,45.67 18,6.69 18.77,8.78 31.63,17.57 -1.65,6.15 0,14.83 0,21.08 -15.37,2.97 -18.46,5.05 -38.65,3.52 -4.52,9.22 -3.4,8.12 -10.55,14.05 -10.75,-6.59 -12.18,-10.98 -28.11,-17.57 -4.05,-35.69 -1.86,-35.24 28.11,-35.13 -7.23,-14.61 -5.92,-20.1 -10.53,-38.66 -8.8,11.64 -21.52,24.82 -35.13,31.63 -1.12,0 -2.32,0 -3.52,0 -6.03,12.19 -1.66,29.32 -3.52,42.16 7.47,1.43 6.6,0 10.54,3.52 5.16,4.83 17.13,8.45 21.09,14.05 1.64,2.42 2.86,14.71 0,10.54 -1.1,0.54 -5.06,13.06 -7.04,14.05 -16.68,8.68 -42.04,-3.4 -56.21,0 -9.99,2.53 -15.14,24.93 -24.59,28.11 h -7.02 c -1.99,-3.29 -8.13,-0.99 -10.55,-3.51 z m 2178.39,-45.68 c -3.97,-6.04 -1.66,-9.44 -3.52,-17.56 -16.04,4.28 -22.73,2.85 -38.66,7.02 -21.41,-46 -13.72,-33.05 -66.76,-35.13 l -17.59,-7.03 c -2.74,-0.55 -6.23,3.08 -3.48,3.51 -4.95,2.2 -12.76,-2.08 -17.59,0 -4.49,1.97 -5.26,24.27 -24.59,17.58 -0.42,-0.12 -8.46,-13.4 0,-10.55 0,0 2.75,-17.24 3.52,-21.08 -16.13,-11.42 -13.61,-7.36 -24.59,-24.6 -10.44,3.08 -14.15,2.42 -21.1,7.03 -13.27,8.89 -6.24,16.58 -3.49,14.05 1.2,7.8 10.32,7.47 7,21.09 -0.85,3.29 -12.18,7.68 -14.04,10.53 -2.97,4.39 -1.85,8.46 -3.51,14.06 -1.2,-0.22 -12.41,2.64 -17.56,3.52 -1.43,-17.47 -2.86,-35.48 0,-56.23 -8.58,-0.87 -30.54,0.33 -42.17,-3.5 -5.07,-1.54 -16.04,-16.91 -21.08,-21.09 -4.4,1.98 -13.06,0 -17.58,0 -1.63,5.71 -2.29,11.97 -3.49,21.09 -9.89,2.52 -24.16,11.96 -42.17,7.02 -2.21,-0.55 -9.44,-10.1 -10.56,-10.54 h -7.03 c -25.45,-24.81 13.95,-30.41 28.11,-38.65 4.4,-2.52 9.69,-11.3 14.07,-14.05 -5.84,-3.95 -9.67,-6.47 -14.07,-10.54 -15.36,10.87 -32.48,23.71 -59.7,14.05 -5.95,-1.97 -11.64,-12.4 -17.59,-14.05 -6.69,-1.76 -14.38,1.32 -21.07,0 -3.63,13.94 -11.33,41.61 -28.11,42.16 -5.49,0.22 -10.32,-5.49 -17.55,-7.03 -0.89,-3.73 -6.61,-5.49 -7.04,-7.03 -3.29,-9.33 -2.86,-24.7 -3.52,-31.61 -25.67,-6.59 -43.15,-14.05 -73.8,-17.58 -5.14,-13.82 -8.54,-23.16 -14.04,-35.13 h -7.03 v 7.03 c -5.92,16.9 -23.05,9.55 -35.11,7.03 -4.52,-26.8 -11.44,-32.28 -21.11,-52.71 -29.96,10 -23.27,9.44 -45.66,0 0,-6.37 1.43,-14.71 0,-21.08 l 10.52,-3.51 c -0.11,0 0,-9.99 0,-10.54 -17.78,2.64 -27.65,0.55 -42.14,0 -1.32,-7.91 -9.78,-6.92 -7.04,-21.08 0.12,-0.77 11.1,-13.73 10.56,-14.06 -10.01,-4.17 -14.93,-28.1 -17.59,-38.65 -29.08,-7.35 -42.72,-6.47 -63.22,-21.07 1.2,-7.91 -2.74,-17.03 0,-24.6 2.4,-6.59 19.96,-11.75 24.59,-17.57 5.49,-6.92 6.69,-23.49 14.04,-28.1 8.03,-5.06 15.7,1.1 21.1,0 0.74,-0.12 3.72,-6.48 7.01,-7.03 -0.12,-0.22 -6.27,-20.87 -3.52,-21.08 -23.39,2.63 -30.28,2.3 -52.7,-3.52 1.55,16.47 5.61,40.19 -10.52,45.68 -3.97,1.43 -10.43,-1.65 -14.07,0 -0.89,-3.74 -6.57,-5.49 -7.03,-7.03 -5.6,-16.25 7.57,-22.84 3.52,-38.65 -2.29,-8.45 -50.18,-47.87 -59.73,-59.73 4.17,-3.96 1.65,-6.58 3.51,-14.05 8.46,-2.2 22.73,-8.78 31.63,-10.54 -40.41,-10 -60.28,-24.38 -42.18,-63.24 -12.18,-8.68 -42.37,-41.29 -38.63,-63.25 0.77,-4.82 12.84,-10.54 14.04,-14.05 1.34,-3.84 -1.74,-10.32 0,-14.05 -7.69,-4.39 -47.41,-33.83 -49.18,-38.65 -2.43,-6.26 1.43,-14.39 0,-21.09 1.54,-0.33 11.41,-1.97 14.04,-3.51 2.66,-1.54 1.46,-9.22 3.54,-10.54 -5.6,-9.45 -21.96,-21.96 -24.61,-31.62 -4.06,-14.6 6.6,-41.06 -7.04,-45.68 -7.89,-2.52 10.55,-21.08 10.55,-21.08 0,-1.2 0,-2.31 0,-3.51 2.43,-1.2 9.13,-12.19 10.56,-14.06 3.59,-5.05 6.03,-6.58 10.54,-10.53 -7.49,-10.88 -25.5,-29.21 -17.58,-52.71 0.77,-2.52 8.66,-6.7 10.55,-10.54 9.78,1.65 17.44,3.29 24.59,3.52 0,-11.75 0,-23.28 0,-35.14 0.77,7.68 0.2,-36.78 3.52,-42.16 2.17,-3.62 16.9,-4.07 21.07,-7.03 2.43,-1.76 3.72,-11.97 7.04,-14.05 8,-4.95 24.04,-8.02 31.59,-10.55 0,-9.11 -3.17,-26.57 0,-35.13 3.74,-10.32 20.56,-9.44 31.65,-14.05 3.52,5.16 9.98,8.89 14.04,14.05 3.21,4.28 4.61,9.88 7.03,14.06 2.86,-8.46 10.41,-33.16 17.56,-38.66 12.3,-9.55 25.25,-5.7 42.18,-3.51 -1.55,-2.41 0.54,-7.9 0,-10.54 -1,-3.73 -14.61,-14.59 -17.59,-17.56 3.21,-4.51 5.07,-13.07 7.04,-17.58 11.52,0 21.53,1.54 35.14,0 5.49,-0.54 14.04,-10.09 28.11,-7.02 3.06,0.77 10.98,13.07 14.03,14.05 3.87,1.44 10.21,-1.53 14.07,0 20.1,-28.43 7.04,-29.98 49.18,-38.64 11.75,16.8 22.39,52.59 56.22,45.67 2,-0.33 10.32,-13.17 14.06,-14.06 13.07,-2.74 20.31,7.58 35.15,3.52 3.4,-0.87 7.34,-12.08 10.52,-14.05 5.6,-3.41 11.32,0.1 17.59,-3.52 3.48,-1.96 4.05,-11.95 7,-14.04 6.06,-4.29 49.52,-21.42 63.24,-17.57 6.04,1.85 9.78,15.69 17.59,17.57 18.76,4.71 27.45,-8.03 45.67,-3.52 12.4,3.18 20.3,27.45 24.59,38.64 48.09,-6.47 32.16,-1.09 59.73,17.57 5.6,3.96 12.4,3.19 17.58,7.03 3.06,2.42 6.9,12.95 10.52,14.05 14.27,4.72 30.97,-3.62 45.67,0 6.14,1.65 12.52,10.88 17.58,14.06 -1.11,5.82 -3.75,15.81 -3.52,17.56 -8.35,3.85 -17.35,10.44 -24.59,14.06 11.76,-0.88 28,-4.62 35.15,-3.51 12.41,1.97 43.57,26.02 45.66,38.65 1.74,11.41 -16.13,25.36 0,31.61 8.58,3.41 22.3,-1.42 31.62,0 8.24,1.33 24.17,11.31 31.63,14.06 -1.66,4.62 0,12.63 0,17.56 -23.93,11.32 -28.57,12.19 -52.7,-3.51 l -3.52,-7.03 c -12.41,-2.08 -10,6.49 -17.55,7.03 0.86,5.38 3.6,16.36 3.48,17.57 27.8,-2.64 41.29,-2.64 56.22,14.06 26.59,29.86 11.55,38.42 -21.07,49.18 1.86,3.95 -1.66,6.48 0,10.55 1.43,3.95 12.64,10.2 14.04,14.05 1.34,3.95 -1.63,10.32 0,14.05 h 7.03 c 0.69,-0.33 0,-12.74 0,-14.05 4.63,-2.31 8.23,-2.31 10.55,-7.03 18.79,6.26 50.52,18.77 52.73,38.65 3.06,30.08 -33.51,29.32 -52.73,28.11 8.23,20.09 10.75,30.96 7.03,56.22 8.33,3.07 12.19,1.64 21.08,3.5 0.77,3.85 6.46,5.61 7.03,7.03 6.38,18.67 -0.89,17.79 10.55,31.62 4.38,5.5 12.07,9.34 17.56,14.06 -0.86,-3.07 -6.81,-12.19 -7.03,-14.06 -1.75,-11.63 6.6,-14.6 3.54,-24.59 -1.23,-3.51 -14.72,-11.42 -17.59,-14.06 1.55,-4.49 0,-12.51 0,-17.56 17.25,-3.3 15.5,-15.81 35.15,3.51 6.26,6.37 3.51,11.64 7.03,21.08 3.29,-2.08 10.3,1.54 14.04,0 2.74,-1.09 5.95,-14.71 7.04,-17.56 13.92,6.69 32.05,8.34 38.62,21.08 1.55,3.18 10.79,49.96 10.56,52.7 -0.55,5.82 -9.55,11.2 -7.04,24.59 0,0 15.93,27.78 17.59,31.63 -12.18,3.29 -15.05,7.79 -28.11,10.53 1.86,1.21 -1.98,9.45 0,10.55 5.14,3.07 12.18,2.3 17.56,3.51 -0.23,3.95 -2.32,21.19 0,28.11 0.88,2.96 11.4,8.45 14.06,10.54 -8.23,17.45 -10.32,27.56 -17.58,45.68 7.57,3.62 14.18,2.41 21.1,7.02 2.74,1.98 7.24,12.85 10.52,14.06 11.1,4.5 21.65,0.22 31.63,3.51 6.49,2.31 10.86,10.65 21.07,10.54 21.64,-0.22 26.13,-22.39 31.62,-38.65 3.18,1.87 11.76,7.14 14.07,7.03 -1.43,18.88 0.97,26.46 3.52,42.16 0.63,4.17 -3.32,9 -3.52,7.03 0,0.54 0,10.54 0,10.54 12.07,9.55 22.93,18.66 35.11,28.1 -1.31,6.82 1.75,14.5 0,21.08 l -7.03,7.03 c 0,0 -3.17,6.37 -3.49,7.04 -11.44,-1.65 -24.27,-6.92 -35.14,-3.52 -1.74,0.55 -7.69,9.22 -10.52,10.54 8.23,13.39 10.41,18.12 21.07,28.11 -4.72,18.44 -17.01,70.49 -14.07,87.83 2.21,13.72 23.93,24.16 28.11,35.14 10.09,27.78 -8.66,91.46 -24.59,98.37 -16.7,7.26 -36.11,-4.17 -52.7,3.53 -5.26,2.52 -3.51,12.72 -7.03,17.56 -7.23,9.99 -21.96,6.69 -31.62,14.05 -11.19,8.46 -23.17,51.6 -35.15,56.21 -3.71,1.43 -7.43,-2.19 -10.52,0 -6.37,-35.02 -5.14,-33.59 -38.66,-42.16 -2.51,4.61 -3.4,12.41 -7,17.57 -2.75,3.85 -16.47,6.92 -17.59,10.54 -4.06,13.18 7.58,20.1 3.52,35.14 -1.54,5.27 -13.73,10.65 -17.58,14.05 0,0 3.2,6.59 3.54,7.04 8.55,-0.67 19.88,2.74 28.11,0 7,-2.31 12.18,-18.78 21.07,-21.09 44.58,-11.31 35.23,21.52 17.56,35.14 -11.84,9.22 -22.16,12.95 -35.14,21.08 z M 3312,2880.67 c -0.34,0.12 -24.93,-5.82 -35.14,-7.02 0.55,-3.41 -3.29,-12.62 3.52,-10.54 3.95,-4.94 6.92,-11.64 10.55,-17.57 19.76,3.07 18.1,-6.58 31.59,14.05 l 7.04,3.52 c 0.77,2.85 -2.09,14.6 -3.52,10.54 -5.92,2.31 -2.4,6.59 -14.04,7.02 z M 2159.58,2402.84 c 0.11,-1.87 0,-45.67 0,-45.67 -1.77,-2.64 -8.89,-4.28 -10.55,-7.03 -1.54,-2.31 -1.66,-15.93 -3.52,-17.57 -5.26,-4.28 -8.78,-1.87 -17.56,-3.52 4.38,-2.3 -8.34,-4.17 -10.54,-3.51 -1.65,0.55 -3.41,5.93 -7.04,7.03 2.43,18.44 7.04,38.98 -10.52,45.68 -7.03,2.74 -8.14,-4.95 -17.58,-3.52 -2.96,0.55 -11.2,9.99 -14.04,10.54 -27.8,6.04 -39.75,-12.51 -52.72,-21.08 -3.5,2.3 -6.8,-1.43 -10.53,0 -5.38,2.08 -9.13,15.26 -14.06,17.57 -12.41,5.93 -43.47,3.4 -56.22,-3.51 -16.79,-9.01 -7.9,-46.67 -17.56,-63.25 -1.54,-2.52 -24.28,-20.86 -28.11,-24.59 -4.06,3.84 -17.24,19.98 -21.07,21.08 -36.69,10.54 -59.19,-52.26 -77.31,14.05 -1.97,0.23 -13.51,5.39 -21.08,3.51 l -3.51,-7.02 c -11.63,-7.47 -21.3,-22.73 -3.51,-31.62 2.96,-1.43 -4.95,-3.85 -3.52,-7.03 -7.69,-1.98 -16.91,-8.45 -24.59,-7.02 -9.01,1.86 -7.92,17.35 -28.11,14.05 -4.94,-0.77 -29.42,-24.05 -31.62,-24.6 -7.81,-1.64 -24.16,2.31 -35.14,3.52 l -3.52,-10.55 c -27.76,-7.24 2.32,14.28 7.04,17.58 -0.99,5.37 -3.73,16.35 -3.52,17.56 -14.15,2.19 -18.33,1.53 -31.63,3.52 -0.97,-4.61 -4.17,-4.73 -7.02,-7.03 3.62,-14.28 3.51,-20.32 7.02,-31.63 -8.89,-4.05 -20.74,-2.19 -24.59,-10.53 -3.4,-6.92 -2.95,-26.57 -3.5,-31.62 -7.14,2.19 -7.03,-5.6 -14.07,-3.51 -4.6,1.42 -7.23,15.58 -14.04,17.56 -18.35,5.49 -34.92,1.1 -52.71,3.51 -2.84,-35.35 -19.21,-58.19 -35.12,-80.81 -1.66,1.21 -8.9,0 -10.56,0 -7.34,15.59 -6.37,12.52 -10.53,35.14 -5.94,1.64 -5.49,-2.64 -7.02,3.51 -3.63,-1.87 -10.32,1.32 -14.07,0 -1.64,-0.44 -3.4,-5.71 -7.03,-7.03 0,-0.11 0.34,-16.47 3.51,-10.54 -0.87,-3.4 -3.51,-14.05 -3.51,-14.05 -8.12,-1.21 -17.01,2.63 -24.59,0 -5.05,-1.65 -9.11,-15.37 -14.04,-17.57 -25.71,-11.2 -48.11,3.62 -66.77,10.54 -7.46,-10.1 -12.74,-12.08 -17.57,-28.11 0.12,2.75 1.32,23.61 0,28.11 -0.66,2.09 -6.48,2.64 -7.03,7.03 -5.04,-1.76 -12.61,1.87 -17.56,0 -2.75,-0.88 -9.22,-7.8 -14.05,-10.55 -3.41,2.2 -7.02,12.19 -10.54,14.06 -5.06,2.64 -41.51,9.44 -49.2,7.03 -0.65,-0.11 -2.84,-6.37 -3.5,-7.03 -20.54,-18.01 -9.89,-13.72 -7.03,-35.13 l 3.52,-14.05 c 0.1,0.09 16.47,0.44 10.54,3.51 4.05,0 9.87,-0.23 14.05,0 0,-1.1 -0.54,-13.85 0,-14.05 -8.35,1.64 -5.82,-5.05 -14.05,-3.52 -2.87,0.54 -11.2,13.49 -14.06,14.06 -10.87,2.29 -48.52,-9.55 -56.23,-14.06 -3.5,-1.98 -0.97,-8 -3.5,-10.55 -4.28,-4.05 -12.08,-3.51 -17.57,-7.02 -2.3,-1.31 -4.84,-9.65 -7.04,-10.54 -2.08,-0.77 -8.66,1.1 -10.52,0 -2.54,6.47 -5.29,-0.11 -7.03,3.51 -1.43,2.87 0,10.99 0,14.05 -6.15,1.44 -1.97,1.33 -3.52,7.03 -6.15,0 -15.37,-1.74 -21.07,0 -7.81,-10.86 -16.47,-25.58 -28.11,-31.62 -17.03,-8.66 -57.101,-10.66 -66.765,-24.59 -3.731,-5.17 0.117,-8.78 -3.516,-14.06 -6.148,2.19 -2.746,-3.94 -3.515,-7.03 -8.996,2.75 0,-10.53 0,-10.53 9.234,-2.75 11.433,3.74 21.086,3.51 0,-0.43 -0.098,-10.44 0,-10.54 -8.68,-2.52 -7.907,-1.1 -17.571,-3.51 5.274,-3.63 -9.879,-3.29 -10.539,-3.52 l -3.504,17.57 c -2.426,1.43 -16.582,-1.87 -17.582,0 -2.961,5.82 0,21.42 0,28.11 -37.656,8.35 -25.578,6.04 -42.148,-24.59 -0.656,-1.11 -10.547,-10.23 -10.547,-10.54 -2.863,-12.52 5.16,-23.6 3.516,-31.64 -0.891,-3.73 -9.336,-7.02 -10.551,-10.52 -4.274,1.86 -12.84,0 -17.555,0 0.539,9.88 1.543,13.94 3.516,24.59 -3.086,2.4 -6.262,2.09 -7.035,7.02 -6.692,-0.33 -24.59,-3.52 -24.59,-3.52 -0.231,-0.22 -9.992,-2.84 -10.555,-3.5 -4.93,-4.73 -2.187,-19.66 -7.016,-24.59 -7.019,-6.93 -20.859,-4.19 -28.109,-10.55 -2.414,-1.98 0,-9.01 -3.504,-10.54 -4.945,-1.87 -12.746,1.97 -17.582,0 3.629,1.76 -7.019,7.02 -7.019,7.02 0.66,1.1 7.019,10.56 7.019,10.56 12.524,3.82 24.82,1.85 31.621,10.53 0.66,0.87 7.035,10.53 7.035,10.53 1.203,5.28 -3.511,21.09 -3.511,21.09 -33.274,0 -52.489,-3.96 -70.27,-28.12 -2.961,-3.83 -2.961,-12.18 -7.023,-14.03 -10.766,-4.73 -23.075,1.52 -31.625,-3.53 -4.516,-2.53 -17.797,-44.35 -14.067,-56.21 0.77,-2.41 8.793,-6.82 10.551,-10.55 6.379,0 14.711,1.55 21.074,0 -0.429,-0.66 -4.273,-6.8 -3.515,-7.02 -26.895,-4.71 -27.762,-10.65 -38.641,-31.62 -35.031,0 -40.52,-2.85 -49.188,-28.11 v -7.04 c -7.148,-5.7 -20.644,-1.73 -28.105,-7.02 -17.238,-11.96 -3.516,-61.14 -3.516,-91.33 15.27,-4.19 36.996,-11.33 42.161,-24.61 1.429,-3.73 -2.301,-7.04 0,-10.53 -8.235,-5.72 -54.684,-47 -56.211,-52.71 -3.305,-11.2 2.527,-18.56 3.5,-28.1 4.621,0.21 11.636,-5.28 21.089,-3.53 7.473,1.55 9.219,10.88 14.051,14.06 0.114,0 15.598,-5.48 10.555,-7.03 2.184,-1.65 9.32,-4.61 10.531,-7.03 3.965,-7.9 0.762,-13.83 3.504,-24.59 -4.832,-0.88 -5.144,-6.7 -7.019,-10.54 -3.844,1.87 -8.02,9.76 -10.54,10.54 -7.46,2.53 -16.91,-1.1 -24.589,0 -3.746,-11.41 -15.809,-32.38 -14.067,-45.68 0.231,-2.19 9.895,-9 10.551,-10.54 5.262,-11.84 -1,-12.06 0,-24.59 -4.5,2.31 -2.855,-5.39 -10.551,-3.51 -0.871,0.21 -3.945,6.26 -7.015,7.03 13.933,5.26 -19.661,5.26 -10.539,3.51 l -3.52,-14.06 c 14.059,-8.55 39.633,-14.7 49.184,-28.1 5.273,-7.48 3.629,-18.88 10.546,-24.59 10.985,-9.12 24.594,-3.73 28.114,-21.08 3.941,-20.11 -9.996,-25.92 -7.039,-42.18 1.543,-8.87 17.574,-13.93 21.09,-21.07 2.632,-5.61 6.703,-25.24 7.023,-28.11 1.426,-15.81 -4.063,-55.12 3.516,-73.79 1.199,0 2.312,0 3.511,0 10.539,-5.27 18.231,-24.69 28.114,-28.1 h 7.015 c 1.774,-1.54 1.098,-9.24 3.516,-10.54 7.808,-3.95 16.469,0.99 24.594,-3.51 6.492,-3.62 34.91,-43.7 21.086,-56.21 17.457,-13.73 52.812,-22.74 49.195,-56.23 -0.113,0 -9.235,-14.49 -10.555,-17.56 4.406,2.3 2.746,-5.37 10.555,-3.52 3.832,0.99 4.832,10.21 7.019,14.05 2.746,0 11.637,-1.42 14.051,0 7.352,-7.13 35.914,-28.53 10.555,-35.12 -2.531,3.05 -7.035,12.84 -10.555,14.04 -3.941,1.45 -10.433,-1.65 -14.051,0 -1.757,-3.41 -7.793,-8.13 -10.539,-10.54 0,0 0,-12.84 3.52,-7.03 2.398,-8.01 1.527,-5.81 3.519,-14.04 7.016,3.29 3.5,-24.59 3.5,-24.59 21.204,6.9 28.782,8.78 52.711,7.02 0.539,1.21 2.848,6.91 3.504,7.03 3.192,0.87 17.242,-2.65 14.055,-3.53 5.273,-9 11.422,-16.67 17.566,-24.588 -16.136,-4.82 -34.91,-5.371 -38.64,-21.082 -0.559,-1.758 0.875,-8.879 0,-10.539 -2.203,-3.512 -12.742,-6.469 -14.071,-10.539 -1.859,-4.93 1.774,-12.512 0,-17.563 6.379,3.063 11.754,0.313 17.586,3.512 6.465,3.75 11.524,16.359 17.559,21.078 11.863,9.672 23.5,14.93 35.141,24.59 8.121,-11.848 17.785,-28.438 28.105,-38.641 4.285,-4.289 18.77,-8.578 21.074,-14.066 4.059,-10.192 -4.277,-13.051 -3.515,-21.07 l 7.031,-10.543 c 5.16,-25.688 1.43,-19.321 10.551,-38.661 3.836,1.543 9.98,-0.988 14.039,0 9.664,2.653 20.315,18.352 28.115,24.614 26.47,-23.953 48.75,-43.16 91.35,-21.09 -2.3,-20.863 -4.61,-41.492 14.05,-49.184 5.61,-2.297 10.77,0.981 14.05,-3.519 2.42,-3.289 8.91,-27.668 10.54,-31.617 39.86,5.929 50.41,1.097 77.3,-14.051 5.4,3.398 19.78,19.097 28.11,17.57 0,0 -2.74,-17.039 -3.5,-21.082 2.51,-1.66 19.64,-11.527 21.07,-14.059 2.86,-5.5 -1.43,-14.929 0,-21.082 1.32,-6.027 16.8,-17.117 17.56,-21.089 1.43,-8.11 -5.15,-13.047 -7.01,-21.079 9.65,2.192 24.37,8.79 35.13,7.032 9.88,-1.543 17.34,-16.571 24.59,-21.082 5.6,-3.508 11.31,0.121 17.57,-3.508 9.55,-5.492 27.24,-42.371 31.61,-56.211 13.3,4.379 37.67,10.527 52.71,10.527 4.39,0.114 11.97,-7.039 21.09,-3.508 0,1.09 0,2.309 0,3.508 5.7,2.961 6.26,11.203 10.54,14.063 5.7,3.949 10.86,0 17.57,3.508 10.53,-34.809 -3.29,-22.18 31.62,-31.618 0.76,1.2 5.59,10.11 7.02,10.539 3.96,1.641 6.71,-1.968 10.54,0 2.97,-2.421 7.14,-12.191 10.55,-14.039 9.76,-5.3 38.08,-5.73 49.18,-7.043 1.21,-7.91 -2.75,-17.027 0,-24.597 5.39,-14.93 70.61,-27.012 91.35,-31.621 1.53,-6.16 -1.64,-11.309 0,-17.559 0.1,-0.539 30.64,-31.191 31.61,-31.633 30.86,-13.937 31.86,9.883 45.69,14.063 28.11,8.679 38.44,-8.02 49.18,-14.063 5.73,-3.187 11.1,-0.437 17.58,-3.508 1.97,5.161 5.81,4.719 10.53,7.032 -2.74,19.636 -1.75,30.41 -3.5,42.16 5.59,-1.434 8.44,1.867 14.04,3.508 3.09,-5.371 11.75,-25.91 17.57,-28.11 19.87,-7.449 46.01,6.59 59.73,7.032 23.6,0.988 26.58,-7.793 38.64,-17.571 32.94,14.489 35.69,0.77 73.79,7.028 3.52,0.66 19,10.332 21.09,10.543 12.18,1.976 24.04,-4.832 31.62,-3.512 3.29,0.652 10.33,8.879 14.04,10.531 -1.63,6.258 1.54,11.438 0,17.57 -0.31,1.321 -35.13,51.161 10.55,38.661 1.55,-0.332 7.8,-10 10.54,-10.551 7.13,-1.301 10.77,4.179 14.05,3.508 -3.71,2.863 2.86,15.16 3.52,17.582 -3.95,2.078 -1.54,6.14 -3.52,7.007 -6.26,3.082 -11.63,2.09 -17.56,3.543 0.43,7.118 -3.85,10.508 -3.51,14.039 0.87,12.622 22.19,19.102 28.11,28.11 4.4,7.031 2.4,17.129 7.03,24.59 5.26,9.019 46.67,27.019 63.25,24.59 1.63,-0.211 9.75,-10.2 10.52,-10.54 3.63,-1.199 10.67,1.981 14.07,0 4.72,-2.75 8.89,-15.468 14.04,-17.558 2.63,-0.992 7.8,1.758 10.55,0 3.06,39.738 1.4,30.527 31.59,31.617 -0.43,-9.34 2.21,-22.5 0,-31.617 -0.2,-0.32 -9.97,-6.481 -10.52,-7.031 6.38,-23.719 -1.43,-16.789 14.04,-31.61 -3.72,-1.109 -5.49,-6.48 -7,-7.043 -5.5,-1.75 -11.99,1.653 -17.59,0 5.6,-2.09 -13.5,-3.398 -14.04,-3.508 -0.88,2.532 -1.54,7.571 -3.51,10.551 -17.48,25.899 -13.07,24.59 -56.22,24.59 -2.4,-6.82 -2.4,-18.34 -7.03,-24.59 -3.95,-5.062 -16.24,-6.172 -21.08,-10.551 -5.26,-4.609 -3.29,-3.41 -7.03,-10.539 0.12,0 0,-10 0,-10.543 2.43,0 11.98,1.551 14.07,0 -0.23,-1.199 2.52,-12.179 3.52,-17.566 -17.36,0 1.31,-27.551 3.48,-31.621 -11.52,-9.012 -21.07,-18.34 -31.59,-28.109 1.86,-6.153 4.37,-7.582 3.49,-14.051 36.56,-21.41 43.83,-17.571 63.24,17.57 2.32,-2.871 11.64,-3.73 14.07,-7.031 3.06,-4.192 0.66,-9.559 3.52,-14.059 14.15,-22.953 31.28,-11.851 49.18,-3.5 -2.97,26.559 -0.55,31.289 3.52,49.18 3.4,-1.981 10.32,1.648 14.04,0 5.28,-2.199 10.01,-19.109 17.58,-21.09 26.45,-6.582 30.16,13.399 42.15,21.09 6.14,4.07 11.21,0.43 17.56,3.508 6.14,3.191 12.09,13.5 17.58,17.582 2.86,-1.34 7.58,0.75 10.52,0 5.61,-1.34 9.89,-12.09 14.07,-14.071 11.86,-5.488 18.55,-0.66 31.62,0 0.55,2.43 6.81,9.891 7.04,10.54 4.83,18.992 -10.87,28.32 3.51,38.671 3.6,-1.66 10.1,1.411 14.04,0 5.49,-1.882 6.49,-14.609 10.56,-17.57 18.78,-13.73 34.13,0 49.18,7.02 -0.43,10.32 0,21.41 0,31.621 -8.01,3.277 -28.89,9.547 -31.63,17.558 -1.43,3.95 1.66,10.43 0,14.059 9.12,-2.527 7.81,5.82 17.59,0 11.63,-6.82 4.71,-22.84 28.1,-21.078 13.73,1.097 26.79,16.461 31.6,28.097 0,0 8.69,4.723 3.52,7.032 -5.81,2.75 -12.62,13.84 -10.53,24.59 0.23,1.652 9.55,5.82 10.53,7.031 8.23,10.969 6.37,19.558 10.55,35.14 -3.09,2.411 -6.27,2.079 -7.04,7.028 -1.2,0 -9.66,-0.649 -10.55,0 v 10.543 c 48.12,-22.293 53.38,-2.653 98.39,10.539 1,6.258 0.34,19.98 3.52,28.097 1.43,4.071 12.63,9.012 14.04,14.063 1.88,7.027 -1.41,13.949 0,21.078 -3.18,2.52 -5.92,2.301 -7.01,7.02 -4.72,0 -13.5,-1.758 -17.58,0 -2.41,1.101 -5.61,13.3 -7.01,14.07 3.29,0.101 8.24,5.371 10.52,7.019 19.45,-13.066 11.87,-11.418 38.66,-10.527 -0.88,8.438 4.29,5.699 3.52,14.027 -0.43,3.633 -10.32,12.641 -10.55,14.071 -2.4,12.402 5.6,15.582 7.03,21.082 1.54,6.801 -1.86,14.488 0,21.078 1.97,7.57 13.07,14.601 17.56,21.082 -1.52,2.519 0.54,8.008 0,10.527 -1.97,8.024 -17.99,13.633 -24.59,17.571 8.57,29.332 19.32,38.771 24.59,73.791 -2.95,0.67 -9.32,6.82 -10.52,7.02 -21.08,4.73 -31.4,-16.57 -42.18,-24.58 -1.97,-1.33 -5.8,-8.68 -7.03,-10.55 -1.52,7.13 -3.95,23.83 -7.01,35.13 -0.88,2.87 -10.12,11.2 -10.55,14.06 -3.4,20.86 17.13,23.71 21.07,38.65 0,1.1 0,2.31 0,3.51 -0.66,-2.62 -4.37,10.32 -3.51,14.05 1.23,5.72 28.79,54.04 14.06,63.26 -20.84,13.16 -33.59,-7.58 -45.66,-10.55 -2.11,-0.43 -8.81,0.88 -10.55,0 -0.89,3.84 -6.57,5.61 -7.03,7.03 -3.84,11.09 0,30.41 0,42.16 1.85,-6.38 3.51,3.51 3.51,3.51 -12.06,26.47 -9.55,19.77 -38.65,17.56 -3.18,-12.17 -10.53,-57.19 -21.08,-63.23 -8.43,-4.62 -19.98,0.1 -28.1,-3.51 -1.66,-0.67 -9.9,-10.33 -10.53,-10.54 -7.69,-1.65 -10.35,4.38 -14.06,3.51 4.05,0 -3.52,10.54 -3.52,10.54 -1.01,12.73 12.95,34.58 14.07,42.16 1.74,14.05 -5.3,25.81 -7.04,35.15 l 3.52,10.51 c 6.57,-1.41 14.49,2.2 21.07,0 16.47,-5.48 10.75,-36.88 38.63,-24.59 27.68,12.42 11.09,42.4 3.52,59.73 -18.45,-1.41 -26.34,-1.09 -42.15,-3.5 6.92,23.82 4.61,21.3 0,42.16 -3.29,0.43 -11.63,4.5 -17.55,7.02 0,0 -23.4,-22.71 -17.59,-24.59 15.16,-4.62 6.92,-44.79 0,-56.23 -5.15,-8.23 -22.19,-13.61 -31.62,-17.56 2.65,44.92 -1.32,35.37 28.1,63.25 -4.29,12.96 -3.17,16.25 -7.03,28.11 1.77,1.42 9.58,5.05 10.55,7.02 3.09,6.81 -2.97,10.33 3.52,14.06 0,0 -6.49,18.33 -7.04,21.07 3.52,-2.19 10.44,-1.2 14.07,-3.51 2.2,-1.3 4.84,-9.77 7.04,-10.53 3.83,-1.21 16.89,2.63 14.04,3.5 0.65,2.1 9.77,5.05 10.55,7.03 3.63,10.66 -3.75,28.11 0,38.65 2.62,7.81 21.73,4.51 17.55,28.12 -1.43,7.91 -15.7,16.03 -21.07,21.08 10.52,22.84 10.52,13.72 3.52,35.13 -5.18,15.82 -9.78,32.84 -24.59,38.66 -38.44,15.13 -43.49,-6.6 -38.66,-38.66 -2.52,-1.86 -16.82,-8.01 -17.59,-10.54 v -7.03 h -7 c -2.63,9.44 -0.66,16.14 -7.04,21.08 l -3.52,3.51 c 1.66,1.66 -1,8.24 0,10.54 1.2,0 2.32,0 3.52,0 13.5,6.81 18.99,20.11 28.11,31.62 -34.57,6.27 -34.57,21.74 -45.66,59.74 8.35,3.96 26.22,17.24 35.11,17.57 18.67,0.87 14.29,-9.78 21.1,-14.06 6.35,-3.95 10.64,0.66 17.56,-3.51 4.4,2.97 9.12,8.23 14.07,10.54 -2.63,10.32 0.97,17.34 -3.52,24.59 -0.57,0.77 -14.07,7.03 -14.07,7.03 -3.29,13.17 9.78,12.85 7.04,28.1 -1.44,7.91 -13.73,12.09 -17.59,17.58 -3.18,4.5 -0.86,9.76 -3.49,14.05 -6.15,9.88 -21.41,15.37 -31.62,21.08 1.51,6.81 -1.98,14.49 0,21.08 1.08,3.85 13.38,12.41 14.04,17.57 1.97,19.55 -18.56,29.97 -31.63,35.15 -7.12,2.84 9.67,7.77 14.07,7.01 l 7.03,-7.01 c 31.17,-8.35 25.45,21.84 24.6,38.62 -4.53,0.79 -5.07,6.38 -7.04,7.04 -17.13,5.93 -39.4,-13.51 -49.18,-17.58 l -7.04,10.54 c 0.66,2.09 9.78,5.07 10.56,7.04 1.97,5.93 0,14.83 0,21.08 5.37,-2.31 1.97,5.71 10.52,3.52 1.43,-0.34 5.17,-9.34 7.03,-10.55 17.9,-11.09 25.25,-2.3 38.66,7.03 -14.38,35.69 -14.73,49.74 -56.21,28.11 0.54,0.43 0,9.88 0,10.54 13.92,6.15 20.84,5.05 28.1,17.57 0.86,1.65 5.04,2.63 7.01,3.5 -1.63,3.85 1.34,10.23 0,14.07 -2.4,6.91 -15.9,13.5 -17.56,21.07 -4.52,20.32 3.06,35.48 0,56.23 3.4,-1.98 6.92,5.92 14.04,0 7.49,-6.27 1,-35.37 0,-49.21 6.72,1.01 12.76,-4.48 24.62,0 1.09,0.56 2.52,6.83 3.49,7.03 0.23,3.19 10.01,9.13 7.03,21.09 -0.2,0.87 -7.46,8.02 -7.03,10.54 0.69,5.16 15.61,8.67 14.07,28.11 -1.01,11.53 -12.84,8.12 -7.04,24.59 0.23,0.98 9.35,8.79 10.56,10.54 0,0 -0.78,9.12 -3.52,3.51 -2.2,1.21 -3.83,12.85 -7.04,14.07 -7.12,2.63 -20.41,0 -28.1,0 v 7.02 c 1.19,0 2.31,0 3.51,0 0.55,2.51 1.66,16.03 3.52,17.57 15.04,13.39 31.31,-1.54 49.18,3.52 2,0.64 7.15,8.99 10.55,10.53 0,3.19 -1.43,11.2 0,14.06 -11.63,14.38 -21.73,22.17 -38.66,31.61 0,4.4 2.09,17.57 0,21.08 -4.17,6.92 -11.06,2.21 -17.55,7.04 -8.01,5.92 -11.53,24.92 -14.07,35.13 -3.84,0.87 -5.61,6.59 -7.01,7.03 -43.8,15.14 -27.45,-35.69 -21.1,-52.71 -6.15,-2.08 -6.46,-0.22 -10.52,-3.51 -13.64,-10.76 -11.87,-9.33 -31.63,-3.51 2.64,4.28 -7.37,4.83 -3.51,7.02 19.75,11.97 11.63,34.48 10.52,63.24 l 10.55,3.52 c 17.7,31.18 3.29,29.2 -28.11,28.11 2.43,-35.25 7.47,-25.26 -21.07,-31.63 -18.33,26.69 -25.36,31.63 -59.73,31.63 -1.32,-2.97 -4.17,-13.51 -7.03,-17.57 1.31,-2.09 10.01,-9.11 10.55,-10.54 -1.89,-1.32 0,-14.93 0,-17.57 -9.78,-1.86 -13.84,-0.22 -21.11,-3.51 -5.14,19.87 -8.98,50.18 -17.55,66.75 10.32,8.24 17.01,13.51 24.59,24.6 -2.94,4.83 -2.4,12.74 -3.52,17.57 -2.4,0.44 -17.98,2.41 -14.04,0 -10.66,-5.71 -11.32,-0.88 -17.55,-10.55 -1.55,-2.19 -6.84,-18.77 -7.04,-21.07 -4.06,0.98 -13.84,3.62 -14.07,3.51 -2.08,2.85 -4.17,8.67 -7,10.54 -3.86,-2.53 -5.72,6.04 -7.03,7.02 26.13,14.72 26.9,10.11 21.07,38.66 -4.49,0.76 -5.06,6.36 -7.04,7.02 -4.37,1.54 -16.47,-2.85 -14.03,-3.51 h -7.04 c -5.15,-1.76 -4.72,-15.49 -10.52,-17.57 -3.86,-1.21 -10.55,1.98 -14.07,0 -4.4,16.36 -10.63,40.3 -24.59,45.67 -3.86,1.54 -7.15,-2.19 -10.55,0 -1.74,-2.85 -10.87,-5.37 -14.04,-7.02 z m 1475.67,-175.68 c -0.11,-0.21 2.52,-10.09 3.52,-14.04 -3.86,-0.78 -5.61,-6.49 -7.04,-7.03 -9.09,-3.08 -21.3,-2.31 -28.1,-3.52 -2.63,-32.72 -12.07,-47.65 -10.55,-73.78 -14.04,26.24 -23.94,24.15 -45.67,7.02 -3.4,4.18 -5.92,15.04 -10.55,17.57 -11.29,6.37 -61.47,3.08 -80.81,7.03 -0.85,-3.73 -6.57,-5.49 -7,-7.03 -4.51,-12.84 0,-35.36 0,-49.18 -0.57,-0.24 -7.03,-3.52 -7.03,-3.52 -2.55,5.26 -6.61,7.02 -10.56,10.53 9.13,30.2 0.98,70.28 -35.14,45.68 -4.51,-2.95 -3.17,-13.94 -7.03,-17.56 -3.51,-3.19 -13.84,-5.38 -17.58,-7.03 2.54,-9.78 -0.98,-16.36 3.51,-24.6 6.84,-12.4 37.23,-10.54 42.18,-24.59 2.09,-5.92 -2.2,-11.53 0,-17.57 -1.2,0 -9.67,0.77 -10.53,0 -10.97,9.99 -14.95,16.35 -21.09,31.62 -11.84,1.65 -31.4,-0.66 -45.67,3.52 -1.23,0.42 -8.46,10.21 -10.55,10.53 -13.27,2.21 -17.9,-8.23 -31.63,-3.51 -1.51,0.55 -3.4,6.37 -7,7.04 18.42,10.53 16.9,8.77 14.04,35.12 l -10.55,3.52 c -2.95,-4.17 -8.12,-3.4 -10.52,-7.02 -2.09,-2.97 -1,-15.49 -3.52,-17.57 -8.35,-6.59 -20.76,1.42 -28.11,-10.54 -3.09,-4.83 -9.23,-33.27 -10.55,-38.66 -67.97,19.99 -42.72,-31.4 -84.32,-31.61 0,0 -8.78,3.29 -10.55,3.51 v 7.03 c 4.83,1.65 12.52,0 17.58,0 -1.66,1.1 2.98,6.15 3.52,7.02 -3.52,2.86 -5.38,1.87 -7.03,7.03 -14.19,2.64 -35.49,8.89 -45.67,7.02 -6.6,-1.1 -15.61,-14.27 -21.1,-17.57 -13.18,-7.57 -27.33,-7.02 -42.14,-14.04 -2.64,-1.1 -7.15,-9.78 -10.55,-10.55 -11.87,-2.19 -14.73,6.92 -24.59,3.52 -1.21,-0.33 -6.15,-9.22 -7.04,-10.54 -12.61,-16.03 -9.66,-23.72 0,-42.16 -8.12,-1.99 -15.93,-3.85 -28.11,-7.04 1.66,3.75 -1.43,10.22 0,14.06 0.35,1.21 9.24,6.17 10.56,7.03 -2.21,6.04 2.08,11.65 0,17.56 -0.78,2.08 -9.01,7.15 -10.56,10.55 -7.14,-2.98 -15.04,-2.31 -21.07,-3.52 -1.66,-14.05 -5.49,-38.53 -7.03,-52.71 -10.87,0 -9.98,1.45 -21.08,0 1.75,-4.93 -1.89,-12.51 0,-17.56 1.86,-5.49 18.99,-10.88 24.59,-14.05 -0.11,-0.56 -1.43,-19.66 -3.51,-14.05 -2.2,-3.64 1.42,-6.48 0,-10.54 -0.78,-1.88 -8.67,-7.25 -10.55,-10.55 h -7.01 c -5.29,11.21 -7.58,19.45 -14.07,28.13 -15.81,20.95 -13.06,8.54 -38.66,17.55 -1.08,0.44 -6.03,10.21 -7,10.55 -6.07,2.19 -11.64,-2.11 -17.58,0 -1.87,-3.75 -9.76,-7.92 -10.53,-10.55 -3.4,-10.11 0.77,-20.41 -3.52,-28.11 -7.03,-12.2 -23.85,-7.36 -35.14,-14.05 -13.72,-7.9 -20.84,-38.76 -24.59,-56.21 -27.99,13.16 -10.86,13.16 -38.66,0 1.23,-6.06 -1.74,-8.01 -3.51,-14.06 14.61,-10.43 14.95,-11.42 31.62,-14.06 -1.2,-0.44 -0.77,-12.83 -3.52,-14.05 -4.14,-1.76 -12.95,0 -17.55,0 -1.97,-3.96 -9.78,-10.32 -10.55,-14.05 -3.29,-14.17 6.26,-28.76 7.03,-38.65 0.46,-7.03 -3.83,-10.43 -3.52,-14.06 h -7 c -7.38,2.53 -13.84,22.51 -21.1,24.6 -11.3,3.29 -12.41,-3.85 -21.08,-3.52 -9,-30.31 -11.43,-27.88 10.53,-45.67 -7.12,-6.37 1.54,-45.9 3.54,-59.74 -5.29,5.17 -12.21,8.91 -17.58,14.08 7.26,0 -19.22,2.94 -10.55,0 -4.04,-3.42 -10.1,0 -14.04,-3.52 V 1665 c -10.98,-31.62 9.89,-35.47 21.07,-63.23 -1.2,-1.11 0.54,-9.03 0,-10.55 -1.75,-4.28 -18.67,-9.23 -21.07,-14.05 -1.74,-3.18 0.54,-10.43 0,-14.06 -0.66,-3.31 -10.32,-16.47 -10.55,-17.57 -1.75,-6.69 1.54,-14.27 0,-21.08 6.37,-5.49 19.87,-14.16 24.59,-21.08 3.86,-5.7 2.43,-12.95 7.03,-17.57 4.95,-4.93 13.3,-4.72 17.56,-10.54 10.43,-14.26 19.44,-50.72 24.62,-70.27 5.14,-1.2 12.4,-0.32 17.55,-3.52 -1.54,-1.3 -2.52,-9 -3.52,-10.53 -3.28,-4.62 -15.04,-6.03 -17.55,-10.55 -6.38,-10.85 1.2,-38.3 0,-56.2 6.46,-2.65 1.66,-0.23 3.52,-7.03 14.15,-0.45 21.84,-2.42 38.62,0 -1.51,-3.85 1,-10 0,-14.05 -3.05,-11.1 -23.59,-19.22 -10.52,-38.67 1.86,-2.84 13.07,-3.73 14.04,-7.02 4.95,-16.79 -11.87,-26.01 3.52,-35.13 4.17,-2.41 19.44,-6.04 24.59,-7.03 -1.43,-12.51 -7.24,-29.09 0,-42.15 1.2,-2.19 9.89,-4.72 10.55,-7.03 2.2,-8.23 -3.29,-20.21 0,-28.1 0.77,-1.99 5.18,-1.76 7.03,-3.54 9.44,-8.33 18.56,-7.02 28.11,-14.03 3.41,-2.54 0.97,-6.48 3.52,-10.54 13.72,-22.29 32.4,-9.78 49.18,0 -1.97,-24.49 -2.86,-33.61 -7.04,-56.23 2.52,-0.66 21.11,-5.14 17.56,-3.5 9.66,6.35 20.87,4.16 24.62,17.57 0.88,3.73 -1.86,10.86 0,14.04 1.74,3.29 12.72,1.33 14.04,3.51 1.32,-2.84 -0.77,-7.57 0,-10.53 0.57,-2.2 10.21,-9.45 10.55,-10.55 1.2,-5.6 -4.72,-20.3 -3.52,-21.07 -2.2,-0.67 -6.57,-5.94 -7.03,-7.05 0.66,-0.53 0,-9.53 0,-10.52 17.36,-7.58 22.07,-9.98 49.18,-7.04 0,-2.07 -1.4,-16.67 0,-17.55 -2.83,-4.179 -9.98,-7.038 -14.04,-10.538 1.11,-3.192 0,-10.543 0,-14.07 5.06,-1.961 4.6,-5.801 7.04,-10.543 19.21,3.632 20.41,3.293 31.62,10.543 3.29,2.199 15.24,7.359 17.56,10.546 6.14,9.012 1.42,19.332 10.55,24.592 4.37,2.63 12.37,-1.31 17.55,0 l 7.04,7.02 c 18.32,4.28 11.63,-1.42 24.59,-3.5 -1.86,-5.72 0,-14.93 0,-21.088 -9.67,-3.5 -19.99,-7.133 -28.11,-10.543 0.66,-5.809 3.52,-24.59 3.52,-24.59 5.48,-0.769 11.09,-5.488 21.07,-3.519 4.83,0.992 12.84,11.199 17.58,14.062 21.85,13.828 34.46,5.477 59.71,14.047 1.43,0.551 3.2,6.269 7.03,7.043 -1.55,7.777 3.18,17.668 0,24.588 -1.09,0 -2.32,0 -3.52,0 -6.38,0 -12.84,8.01 -17.55,10.54 0,6.48 1.43,14.82 0,21.07 3.17,2.75 5.03,10.55 10.52,10.55 1.23,0 2.31,0 3.52,0 6.6,-6.26 14.95,-21.96 24.59,-24.59 3.97,-0.99 10.12,1.53 14.06,0 -4.17,-12.85 -2.85,-17.8 -7.03,-31.62 12.64,-5.499 33.71,-17.249 52.7,-7.038 17.04,9.328 5.06,22.948 3.51,31.628 -1.62,9.12 3.98,13.06 3.52,17.57 23.39,1.42 43.26,5.04 66.77,14.05 1.08,0.55 2.52,6.8 3.51,7.02 h 7.04 c 5.14,8.57 -0.46,20.2 3.48,31.64 2.55,7.68 14.3,11.51 17.59,17.55 3.63,7.15 0.43,10.77 3.52,17.57 15.15,-0.54 47.32,-2.08 63.24,7.04 7.15,4.16 10.87,16.24 17.59,21.07 3.06,2.41 6.78,-1.32 10.52,0 22.85,8.89 7.35,31.74 0,42.16 12.18,3.3 34.92,6.69 38.66,17.57 1.86,5.7 -2.74,16.14 0,21.07 1.2,0 2.29,0 3.52,0 14.04,7.14 24.05,21.2 35.11,31.62 3.63,-1.64 10.12,1.44 14.07,0 8.58,-2.95 10.44,-21.06 31.62,-14.05 2.52,0.89 6.69,8.78 10.53,10.56 -3.29,5.37 -0.2,12.94 -3.5,17.55 -1.65,2.2 -19.43,9.78 -21.09,14.05 -1.52,3.85 2.2,7.14 0,10.55 33.05,8.67 39.31,7.14 35.14,45.68 11.86,7.45 23.39,9.44 35.14,17.56 3.63,2.64 2.86,7.8 7,10.56 -2.51,16.46 -6.78,38.31 7.04,45.67 25.7,13.72 33.71,-8.14 45.66,-10.55 14.72,-2.85 16.47,5.49 24.59,7.03 -0.86,8.45 4.29,5.71 3.52,14.04 -0.32,3.31 -7.78,11.21 -7.01,17.58 0.12,1.64 10.21,9.87 10.52,10.53 1.55,4.19 -1.97,6.7 0,10.55 -5.6,2.63 -15.04,7.25 -21.07,10.54 10.21,22.17 8.89,29.76 0,52.71 11.41,-6.27 22.62,-12.42 35.14,-17.58 -0.88,-0.1 17.67,-0.34 21.07,0 2.64,6.04 13.39,39.31 17.56,42.17 9.01,6.48 22.08,1.31 31.62,7.02 7.47,4.61 2.98,19.89 0,17.57 1.55,5.71 -1.85,12.2 0,17.57 0.46,1.53 6.27,3.4 7.04,7.02 27.68,-2.09 31.83,0 49.18,7.03 2.77,25.27 2.97,35.78 -14.04,49.2 -1.77,1.3 -9.89,5.04 -10.55,7.01 -2.63,7.69 1.2,16.59 0,24.59 5.61,1.65 5.72,-2.85 7.03,3.53 5.81,-2.54 11.64,2.63 17.56,0 4.52,-1.98 2.97,-14.82 7.07,-17.56 20.61,-14.05 46.86,-4.4 52.69,14.03 4.18,13.62 -1.88,13.28 -3.52,24.59 h -7.03 l 3.51,28.13 c -12.52,-0.87 -14.49,-0.56 -21.07,0 -2.2,6.03 2.09,11.64 0,17.56 -0.88,2.31 -9.23,4.94 -10.55,7.03 -3.74,6.03 -0.43,10.88 -3.52,17.57 3.86,2.09 6.38,9.55 10.55,10.53 2.29,0.67 8.24,-1.54 10.53,0 6.49,4.74 10.24,22.08 17.58,24.59 7.9,2.98 23.05,-0.32 31.63,0 5.49,19.01 11.84,34.16 17.55,49.2 -2.63,1.76 -3.74,12.2 -7,14.05 -6.83,3.95 -15.84,3.64 -21.11,7.03 -20.52,13.18 23.08,23.5 31.63,31.64 3.29,3.28 0,10.74 3.52,14.03 -3.83,0.89 -47.75,9.67 -49.18,10.56 -1.89,1.2 -11.98,27.44 -14.07,31.6 17.56,5.72 19.76,9.45 31.62,17.58 -5.14,4.62 -4.83,13.28 -10.52,17.56 -4.94,3.74 -8.04,1.76 -14.07,3.52 0.12,0.65 -2.63,12.85 -3.52,17.57 10.99,5.16 18.88,8.78 28.11,14.04 -1.86,5.06 1.75,12.64 0,17.57 -0.88,2.3 -9.23,4.95 -10.52,7.03 -4.74,7.58 -7.69,21.08 -10.55,28.12 -1.88,-5.82 -3.52,10.53 -3.52,10.53 15.04,8.77 4.06,29.43 -14.06,28.11 l -7.01,-7.02 c -6.72,-3.3 -11.64,-4.4 -17.59,-7.03 -0.11,-0.55 -0.42,-22.84 0,-21.08 2.09,-4.39 8.9,-7.14 10.55,-10.55 3.52,-7.47 1.32,-14.49 3.52,-21.08 -7.8,6.81 -13.95,10.54 -21.07,17.58 -6.06,-2.09 -11.67,2.2 -17.61,0 -4.38,-1.44 -9.75,-16.03 -14.04,-17.58 -6.03,-2.08 -11.64,2.21 -17.56,0 -0.46,0.76 -3.52,7.04 -3.52,7.04 -1.77,-5.39 -3.51,13.38 -3.51,14.04 0.77,0.67 10.21,6.26 10.55,7.04 2.51,8.88 -4.29,13.39 -3.52,17.56 h -7.03 c -4.72,-1.54 -9.24,-17.78 -14.07,-21.09 -2.4,-1.52 -8.12,0.67 -10.52,0 -2.44,-0.54 -11.53,-9.66 -14.07,-10.53 -21.08,-6.71 -40.29,-7.02 -66.74,-7.02 -6.26,-13.06 -5.83,-12.63 -10.55,-31.64 -0.54,0 -10.55,0.23 -10.55,0 -0.75,8.47 -3.49,25.16 -3.49,38.66 7.9,2.75 10.87,1.64 21.07,3.52 -1.23,15.81 -1.23,34.69 -7.03,52.69 16.59,-3.07 18.22,-5.26 35.14,0 l 3.52,7.03 c 6.03,2.41 18.1,0 24.59,0 -0.66,3.3 4.83,6.92 3.49,14.05 -2.75,14.72 -23.05,28.12 -31.6,38.66 -3.75,-5.17 0.12,-8.79 -3.52,-14.06 -2.74,-3.84 -6.8,-0.55 -10.55,-3.52 -4.17,-3.07 -7.23,-13.28 -10.52,-17.56 -0.68,0.99 -9.58,2.52 -10.55,3.51 -3.06,2.97 -2.2,9.44 -3.52,14.05 -3.74,0.77 -5.6,6.59 -7.03,7.04 -13.07,4.5 -20.18,-4.62 -28.08,-7.04 l -3.52,3.52 c 1.21,21.19 -1.2,23.83 -3.51,38.65 -2.75,0 -11.75,-1.43 -14.04,0 -2.86,-4.5 -12.21,-8.24 -14.07,-14.06 z m -1159.46,-63.24 c -1.77,-4.61 -6.26,-4.83 -10.55,-7.03 2.98,-7.91 2.09,-14.05 3.52,-21.08 5.81,-0.65 3.4,-4.17 7.03,-7.02 1.63,1.54 11.72,0 14.04,0 -1.97,14.27 -1.66,22.18 -3.51,35.13 -0.55,0 -10.53,-0.11 -10.53,0 z m -38.66,-45.67 c -1,-2.74 -8.35,-8.68 -10.54,-10.55 7.92,-16.13 11.09,-36.56 35.13,-28.11 6.81,2.53 5.95,10.44 10.56,14.07 -3.52,2.3 -6.81,-1.44 -10.56,0 -8.43,3.28 -9.55,21.85 -17.55,24.59 z m 1187.57,-38.66 c -1.86,-3.73 -9.75,-7.89 -10.52,-10.54 -2.98,-8.68 -2.43,-21.39 -3.52,-28.1 -12.1,-4.07 -24.04,-9.44 -35.14,-14.06 8.89,-14.28 13.18,-27.01 28.11,-35.14 63.56,-34.24 31.85,54.03 28.1,87.84 z M 2303.6,2002.3 v -7.03 c -0.31,1.64 -4.6,-12.62 -3.48,-17.57 1.08,-5.71 10.32,-17.55 14.04,-24.59 h 7.03 c 1.86,-1.65 4.49,-9.66 7.03,-10.54 3.84,-1.33 10.32,1.76 14.04,0 0.89,2.09 10.55,14.05 10.55,14.05 1.09,8.57 -6.26,7.26 -7.03,10.54 -2.29,8.56 4.18,13.61 3.52,17.58 -1.32,6.69 -29.11,25.24 -45.7,17.56 z m 681.64,-59.73 c 10.75,-19.66 20.96,-32.17 24.59,-59.73 3.52,-0.54 8.78,-6.71 10.55,-7.02 19.64,-3.63 32.17,10.54 42.15,-14.06 5.95,-14.6 -0.89,-41.61 17.58,-31.61 5.27,2.96 6.04,31.83 7.01,38.64 -24.25,6.26 -41.18,16.8 -56.22,31.62 0.89,2.64 3.64,10.32 3.52,10.54 -2.97,4.28 -42.14,27.35 -49.18,31.62 z m -488.37,-165.13 c 5.92,-12.74 5.72,-33.16 31.62,-24.6 2.52,0.87 6.69,8.79 10.55,10.55 0,5.04 -1.66,13.06 0,17.56 -3.31,2.53 -11.55,13.06 -14.06,14.05 -3.87,1.53 -7.15,-2.19 -10.56,0 -4.83,-5.82 -12.61,-11.41 -17.55,-17.56 z m 77.29,-291.63 c 1.08,-1.53 0,-8.78 0,-10.54 3.74,-1.74 10.66,-9.77 14.06,-10.53 37.55,-8.45 22.28,27 17.56,38.64 -3.09,0 -11.41,-1.32 -14.07,0 -4.38,-5.61 -13.27,-11.74 -17.55,-17.57 z m -35.12,-274.05 c 1.52,-6.04 0,-14.71 0,-21.08 34.69,-8.78 21.96,-17.8 31.59,17.57 -3.17,2.52 -5.91,2.31 -7,7.02 -5.83,1.76 -9.46,0.66 -14.06,3.52 -0.78,-1.98 -8.44,-5.39 -10.53,-7.03 z m 59.71,-80.81 c -13.81,-13.07 -23.28,-26.79 -35.12,-42.16 0,0.11 7,7.04 7,7.04 12.53,4.27 21.97,6.24 42.18,7.01 -1.88,11.31 -2.2,15.15 -3.51,28.11 -0.55,0 -10.55,-0.11 -10.55,0 z m -91.36,-21.07 c 0.11,-1.22 -2.63,-12.19 -3.49,-17.58 23.93,-18.77 61.59,-42.5 38.63,14.05 -14.81,2.1 -21.73,1.54 -35.14,3.53 z M 729.574,1088.79 c 5.059,-1.43 19.328,-19.78 0,-14.05 -4.832,1.41 -9.777,16.9 0,14.05 z m 31.621,0 c 0.547,-1.97 9.883,-4.94 10.551,-7.03 1.863,-6.37 -0.109,-8.78 -3.516,-10.54 0,0 5.918,-16.91 7.02,-21.07 -5.156,3.61 -7.789,1.64 -14.055,3.5 -0.882,4.62 -6.586,7.9 -7.031,10.54 -1.859,10.01 5.934,18.46 7.031,24.6"
         style="fill:#f2541b;fill-opacity:1;fill-rule:nonzero;stroke:none"
         id="path12" />
      <path
         d="m 2716.58,626.18 h 13.66 c 14.07,0 18.62,4.039 18.62,12.3 0,7.18 -3.49,11.239 -16.67,11.239 h -15.61 z m 0,-42.129 h -11.61 v 75.129 h 28.79 c 17.93,0 26.71,-6.668 26.71,-21.418 0,-13.512 -8.44,-19.313 -19.67,-20.723 l 21.41,-32.988 h -12.63 l -20.02,32.648 h -12.98 z m 13.86,92.168 c -30.22,0 -53.55,-23.36 -53.55,-54.43 0,-31.777 23.33,-54.789 53.55,-54.789 29.86,0 53.19,23.012 53.19,54.789 0,31.07 -23.33,54.43 -53.19,54.43 z m 0,10.543 c 35.46,0 65.82,-27.582 65.82,-64.973 0,-37.738 -30.36,-65.32 -65.82,-65.32 -35.82,0 -66.19,27.582 -66.19,65.32 0,37.391 30.37,64.973 66.19,64.973"
         style="fill:#f2541b;fill-opacity:1;fill-rule:nonzero;stroke:none"
         id="path14" />
    </g>
  </g>
</svg>
