<?xml version="1.0" encoding="UTF-8" standalone="no"?>
<!DOCTYPE svg PUBLIC "-//W3C//DTD SVG 1.1//EN" "http://www.w3.org/Graphics/SVG/1.1/DTD/svg11.dtd">
<svg width="100%" height="100%" viewBox="0 0 188 188" version="1.1" xmlns="http://www.w3.org/2000/svg" xmlns:xlink="http://www.w3.org/1999/xlink" xml:space="preserve" xmlns:serif="http://www.serif.com/" style="fill-rule:evenodd;clip-rule:evenodd;stroke-linejoin:round;stroke-miterlimit:2;">
    <g id="Owl" transform="matrix(1,0,0,1,-720,-396.914)">
        <g transform="matrix(1,0,0,1,70,-59)">
            <rect x="764" y="575" width="10" height="10" style="fill:rgb(87,39,0);"/>
        </g>
        <g transform="matrix(1,0,0,1,90,-59)">
            <rect x="764" y="575" width="10" height="10" style="fill:rgb(87,39,0);"/>
        </g>
        <g transform="matrix(1,0,0,1,60,-29)">
            <rect x="764" y="575" width="10" height="10" style="fill:rgb(87,39,0);"/>
        </g>
        <g transform="matrix(1,0,0,1,70,-39)">
            <rect x="764" y="575" width="10" height="10" style="fill:rgb(87,39,0);"/>
        </g>
        <g transform="matrix(1,0,0,1,60,-49)">
            <rect x="764" y="575" width="10" height="10" style="fill:rgb(87,39,0);"/>
        </g>
        <g transform="matrix(1,0,0,1,80,-49)">
            <rect x="764" y="575" width="10" height="10" style="fill:rgb(87,39,0);"/>
        </g>
        <g transform="matrix(2.2,0,0,1,-846.8,-19)">
            <rect x="764" y="575" width="10" height="10" style="fill:rgb(87,39,0);"/>
        </g>
        <g transform="matrix(2.2,0,0,1,-836.8,-29)">
            <rect x="764" y="575" width="10" height="10" style="fill:rgb(87,39,0);"/>
        </g>
        <g transform="matrix(2.2,0,0,1,-826.8,-39)">
            <rect x="764" y="575" width="10" height="10" style="fill:rgb(87,39,0);"/>
        </g>
        <g transform="matrix(2.2,0,0,1,-816.8,-49)">
            <rect x="764" y="575" width="10" height="10" style="fill:rgb(87,39,0);"/>
        </g>
        <g transform="matrix(-1,0,0,1,1560,-59)">
            <rect x="764" y="575" width="10" height="10" style="fill:rgb(87,39,0);"/>
        </g>
        <g transform="matrix(-1.9,0,0,1,2275.6,-78)">
            <rect x="764" y="575" width="10" height="10" style="fill:rgb(87,39,0);"/>
        </g>
        <g transform="matrix(-4.1,0,0,1,3996.4,-88)">
            <rect x="764" y="575" width="10" height="10" style="fill:rgb(87,39,0);"/>
        </g>
        <g transform="matrix(-4.1,0,0,1,3938.4,-88)">
            <rect x="764" y="575" width="10" height="10" style="fill:rgb(87,39,0);"/>
        </g>
        <g transform="matrix(-1.1,0,0,3.9,1726.4,-1755.5)">
            <rect x="764" y="575" width="10" height="10" style="fill:rgb(87,39,0);"/>
        </g>
        <g transform="matrix(-1.2,0,0,1.9,1792.8,-595.5)">
            <rect x="764" y="575" width="10" height="10" style="fill:rgb(87,39,0);"/>
        </g>
        <g transform="matrix(-2.6,0,0,1,2866.4,-98)">
            <rect x="764" y="575" width="10" height="10" style="fill:rgb(87,39,0);"/>
        </g>
        <g transform="matrix(-2.6,0,0,1,2761.4,-98)">
            <rect x="764" y="575" width="10" height="10" style="fill:rgb(87,39,0);"/>
        </g>
        <g transform="matrix(-1.1,0,0,5,1720.4,-2448)">
            <rect x="764" y="575" width="10" height="10" style="fill:rgb(87,39,0);"/>
        </g>
        <g transform="matrix(-1.1,0,0,2.8,1705.4,-1191)">
            <rect x="764" y="575" width="10" height="10" style="fill:rgb(87,39,0);"/>
        </g>
        <g transform="matrix(-1.1,0,0,2.20857,1716.4,-873.014)">
            <rect x="764" y="575" width="10" height="10" style="fill:rgb(87,39,0);"/>
        </g>
        <g transform="matrix(-2.4,0,0,1,2700.6,-172)">
            <rect x="764" y="575" width="10" height="10" style="fill:rgb(87,39,0);"/>
        </g>
        <g transform="matrix(-6.1,0,0,1,5505.4,-164)">
            <rect x="764" y="575" width="10" height="10" style="fill:rgb(87,39,0);"/>
        </g>
        <g transform="matrix(-3.3,0,0,1,3308.2,-172)">
            <rect x="764" y="575" width="10" height="10" style="fill:rgb(87,39,0);"/>
        </g>
        <g transform="matrix(-1.1,0,0,2.40857,1604.4,-988.014)">
            <rect x="764" y="575" width="10" height="10" style="fill:rgb(87,39,0);"/>
        </g>
        <g transform="matrix(-1.1,0,0,6.1,1598.4,-3079.5)">
            <rect x="764" y="575" width="10" height="10" style="fill:rgb(87,39,0);"/>
        </g>
        <g transform="matrix(-1.1,0,0,0.7,1615.4,18.5)">
            <rect x="764" y="575" width="10" height="10" style="fill:rgb(87,39,0);"/>
        </g>
        <g transform="matrix(-3.8,0,0,1,3699.2,-147)">
            <rect x="764" y="575" width="10" height="10" style="fill:rgb(87,39,0);"/>
        </g>
        <g transform="matrix(-1.9,0,0,1,2275.6,-147)">
            <rect x="764" y="575" width="10" height="10" style="fill:rgb(87,39,0);"/>
        </g>
        <g transform="matrix(-0.9,0,0,0.7,1492.6,18.5)">
            <rect x="764" y="575" width="10" height="10" style="fill:rgb(87,39,0);"/>
        </g>
        <g transform="matrix(-0.9,0,0,0.9,1492.6,-79.5)">
            <rect x="764" y="575" width="10" height="10" style="fill:rgb(87,39,0);"/>
        </g>
        <g transform="matrix(-1,0,0,1.1,1579,-185.5)">
            <rect x="764" y="575" width="10" height="10" style="fill:rgb(87,39,0);"/>
        </g>
        <g transform="matrix(-2,0,0,1.1,2353,-164.5)">
            <rect x="764" y="575" width="10" height="10" style="fill:rgb(218,112,0);"/>
        </g>
        <g transform="matrix(-1.8,0,0,0.3,2199.2,304.5)">
            <rect x="764" y="575" width="10" height="10" style="fill:rgb(218,112,0);"/>
        </g>
        <g transform="matrix(-1.6,0,0,0.3,2045.4,306.5)">
            <rect x="764" y="575" width="10" height="10" style="fill:rgb(218,112,0);"/>
        </g>
        <g transform="matrix(-1.4,0,0,0.3,1891.6,307.5)">
            <rect x="764" y="575" width="10" height="10" style="fill:rgb(218,112,0);"/>
        </g>
        <g transform="matrix(-1.2,0,0,0.3,1737.8,308.5)">
            <rect x="764" y="575" width="10" height="10" style="fill:rgb(218,112,0);"/>
        </g>
        <g transform="matrix(-1,0,0,0.3,1584,309.5)">
            <rect x="764" y="575" width="10" height="10" style="fill:rgb(218,112,0);"/>
        </g>
        <g transform="matrix(-0.8,0,0,0.3,1430.2,310.5)">
            <rect x="764" y="575" width="10" height="10" style="fill:rgb(218,112,0);"/>
        </g>
        <g transform="matrix(-0.6,0,0,0.3,1276.4,311.5)">
            <rect x="764" y="575" width="10" height="10" style="fill:rgb(218,112,0);"/>
        </g>
        <g transform="matrix(-0.4,0,0,0.3,1122.6,312.5)">
            <rect x="764" y="575" width="10" height="10" style="fill:rgb(218,112,0);"/>
        </g>
        <g transform="matrix(-0.2,0,0,0.3,968.8,313.5)">
            <rect x="764" y="575" width="10" height="10" style="fill:rgb(218,112,0);"/>
        </g>
        <g transform="matrix(-2.2,0,0,1,2476.8,-128)">
            <rect x="764" y="575" width="10" height="10"/>
        </g>
        <g transform="matrix(-2.1,0,0,1,2458.4,-128)">
            <rect x="764" y="575" width="10" height="10"/>
        </g>
        <g transform="matrix(-2.1,0,0,0.9,2458.4,-48.5)">
            <rect x="764" y="575" width="10" height="10"/>
        </g>
        <g transform="matrix(-2.1,0,0,0.9,2400.4,-48.5)">
            <rect x="764" y="575" width="10" height="10"/>
        </g>
        <g transform="matrix(-1.2,0,0,1.2,1717.8,-233)">
            <rect x="764" y="575" width="10" height="10"/>
        </g>
        <g transform="matrix(-1.2,0,0,1.2,1696.8,-233)">
            <rect x="764" y="575" width="10" height="10"/>
        </g>
        <g transform="matrix(-1.2,0,0,1.2,1755.8,-233)">
            <rect x="764" y="575" width="10" height="10"/>
        </g>
        <g transform="matrix(-1.2,0,0,1.2,1777.8,-233)">
            <rect x="764" y="575" width="10" height="10"/>
        </g>
        <g transform="matrix(-0.9,0,0,0.9,1520.6,-79.5)">
            <rect x="764" y="575" width="10" height="10" style="fill:rgb(87,39,0);"/>
        </g>
        <g transform="matrix(-0.9,0,0,0.7,1520.6,18.5)">
            <rect x="764" y="575" width="10" height="10" style="fill:rgb(87,39,0);"/>
        </g>
        <g transform="matrix(-2.3,0,0,1,2613.2,-147)">
            <rect x="764" y="575" width="10" height="10" style="fill:rgb(87,39,0);"/>
        </g>
        <g transform="matrix(-1.5,0,0,0.808571,1902,-68.0143)">
            <rect x="764" y="575" width="10" height="10" style="fill:rgb(87,39,0);"/>
        </g>
        <g transform="matrix(-1.1,0,0,0.808571,1727.4,-68.0143)">
            <rect x="764" y="575" width="10" height="10" style="fill:rgb(87,39,0);"/>
        </g>
        <g transform="matrix(-1.1,0,0,2,1712.4,-723)">
            <rect x="764" y="575" width="10" height="10" style="fill:rgb(87,39,0);"/>
        </g>
        <g transform="matrix(-1.1,0,0,1.3,1716.4,-301.5)">
            <rect x="764" y="575" width="10" height="10" style="fill:rgb(87,39,0);"/>
        </g>
        <g transform="matrix(-1,0,0,1,1540,-59)">
            <rect x="764" y="575" width="10" height="10" style="fill:rgb(87,39,0);"/>
        </g>
        <g transform="matrix(-1,0,0,1,1570,-29)">
            <rect x="764" y="575" width="10" height="10" style="fill:rgb(87,39,0);"/>
        </g>
        <g transform="matrix(-1,0,0,1,1560,-39)">
            <rect x="764" y="575" width="10" height="10" style="fill:rgb(87,39,0);"/>
        </g>
        <g transform="matrix(-1,0,0,1,1570,-49)">
            <rect x="764" y="575" width="10" height="10" style="fill:rgb(87,39,0);"/>
        </g>
        <g transform="matrix(-1,0,0,1,1550,-49)">
            <rect x="764" y="575" width="10" height="10" style="fill:rgb(87,39,0);"/>
        </g>
        <g transform="matrix(-2.2,0,0,1,2476.8,-19)">
            <rect x="764" y="575" width="10" height="10" style="fill:rgb(87,39,0);"/>
        </g>
        <g transform="matrix(-2.2,0,0,1,2466.8,-29)">
            <rect x="764" y="575" width="10" height="10" style="fill:rgb(87,39,0);"/>
        </g>
        <g transform="matrix(-2.2,0,0,1,2456.8,-39)">
            <rect x="764" y="575" width="10" height="10" style="fill:rgb(87,39,0);"/>
        </g>
        <g transform="matrix(-2.5,0,0,1,2676,-49)">
            <rect x="764" y="575" width="10" height="10" style="fill:rgb(87,39,0);"/>
        </g>
        <g transform="matrix(-1.2,0,0,2.9,1669.8,-1170.5)">
            <rect x="764" y="575" width="10" height="10" style="fill:rgb(87,39,0);"/>
        </g>
        <g transform="matrix(-1.2,0,0,2.8,1681.8,-1123)">
            <rect x="764" y="575" width="10" height="10" style="fill:rgb(87,39,0);"/>
        </g>
        <g transform="matrix(1,0,0,1,22,0)">
            <rect x="764" y="575" width="10" height="10" style="fill:rgb(255,180,0);"/>
        </g>
        <g transform="matrix(1,0,0,1,71,0)">
            <rect x="764" y="575" width="10" height="10" style="fill:rgb(255,180,0);"/>
        </g>
        <g transform="matrix(1.8,0,0,1,-569.2,0)">
            <rect x="764" y="575" width="10" height="10" style="fill:rgb(255,180,0);"/>
        </g>
        <g transform="matrix(5.9,0,0,1,-3721.6,-10)">
            <rect x="764" y="575" width="10" height="10" style="fill:rgb(87,39,0);"/>
        </g>
    </g>
</svg>
